<svg width="31" height="31" viewBox="0 0 31 31" fill="none" xmlns="http://www.w3.org/2000/svg">
<rect x="0.787598" y="0.562012" width="30.0176" height="30.0176" rx="15.0088" fill="#6193B7"/>
<path d="M24.9454 23.7259L18.0634 7.08738C17.6752 6.22713 17.0982 5.8075 16.3376 5.8075H15.7292C14.9686 5.8075 14.3916 6.22713 14.0034 7.08738L11.0083 14.3366H8.74223C8.06557 14.3418 7.5148 14.8874 7.50955 15.5693V15.585C7.5148 16.2617 8.06557 16.8124 8.74223 16.8177H9.95917L7.10041 23.7259C7.04795 23.878 7.01648 24.0354 7.01648 24.198C7.01648 24.5862 7.13712 24.8904 7.35219 25.1265C7.56725 25.3625 7.87673 25.4779 8.2649 25.4779C8.52192 25.4727 8.76846 25.394 8.97303 25.2419C9.19334 25.0897 9.34546 24.8694 9.4661 24.6177L12.6134 16.8124H14.7955C15.4721 16.8072 16.0229 16.2617 16.0282 15.5798V15.5483C16.0229 14.8716 15.4721 14.3208 14.7955 14.3156H13.631L16.0334 8.33055L22.5797 24.6124C22.7004 24.8642 22.8525 25.0845 23.0728 25.2366C23.2774 25.3887 23.5291 25.4674 23.7809 25.4727C24.1691 25.4727 24.4733 25.3573 24.6936 25.1212C24.9139 24.8852 25.0293 24.5809 25.0293 24.1928C25.0346 24.0354 25.0084 23.8728 24.9454 23.7259Z" fill="white"/>
</svg>
