<svg width="31" height="31" viewBox="0 0 31 31" fill="none" xmlns="http://www.w3.org/2000/svg">
<rect x="0.525024" y="0.548279" width="30.0176" height="30.0176" rx="15.0088" fill="#0E0E0E"/>
<g clip-path="url(#clip0_76_891)">
<path d="M9.77424 24.2507L12.3012 19.8747L14.8283 15.514L17.3399 11.138L17.7559 10.4446L17.9408 11.138L18.7112 14.0194L17.8483 15.514L15.3213 19.8747L12.8097 24.2507H15.8298L18.3568 19.8747L19.6666 17.6096L20.2829 19.8747L21.454 24.2507H24.1659L22.9948 19.8747L21.8238 15.514L21.5156 14.3892L23.3954 11.138H20.6527L20.5603 10.8144L19.6049 7.2396L19.4817 6.77734H16.8468L16.7852 6.8698L14.3198 11.138L11.7928 15.514L9.28116 19.8747L6.75415 24.2507H9.77424Z" fill="white"/>
</g>
<defs>
<clipPath id="clip0_76_891">
<rect width="17.4117" height="17.4734" fill="white" transform="translate(6.75427 6.77734)"/>
</clipPath>
</defs>
</svg>
