<svg width="31" height="31" viewBox="0 0 31 31" fill="none" xmlns="http://www.w3.org/2000/svg">
<rect x="0.931885" y="0.520752" width="30.0176" height="30.0176" rx="15.0088" fill="#E84142"/>
<path fill-rule="evenodd" clip-rule="evenodd" d="M9.00043 22.1583H11.7953C12.4534 22.1583 12.7824 22.1583 13.0761 22.077C13.398 21.9813 13.6917 21.8116 13.9358 21.578C14.16 21.3645 14.3217 21.0814 14.6409 20.5229L14.641 20.5225L14.6504 20.5061L18.2753 14.0983C18.5973 13.5358 18.7565 13.2527 18.8273 12.9556C18.9051 12.6336 18.9051 12.294 18.8273 11.972C18.757 11.6771 18.5962 11.3961 18.279 10.8419L18.2718 10.8293L16.8531 8.35278C16.5595 7.83625 16.4109 7.57798 16.2234 7.48246C16.0217 7.37987 15.7811 7.37987 15.5795 7.48246C15.392 7.57798 15.2434 7.83625 14.9497 8.35278L8.04875 20.5167C7.75865 21.0262 7.61358 21.281 7.6242 21.4896C7.63835 21.7161 7.7551 21.9213 7.94615 22.0452C8.12304 22.1583 8.41314 22.1583 9.00043 22.1583ZM22.8582 22.1583H18.8534C18.2626 22.1583 17.9654 22.1583 17.7921 22.0452C17.601 21.9213 17.4843 21.7127 17.4701 21.4862C17.4596 21.2791 17.6058 21.0267 17.8984 20.5217L17.8984 20.5216L17.9053 20.5098L19.9042 17.078C20.1978 16.5721 20.3464 16.3209 20.5304 16.2254C20.732 16.1228 20.9692 16.1228 21.1707 16.2254C21.3534 16.3184 21.4956 16.5589 21.7772 17.0351L21.7776 17.0358L21.8005 17.0745L23.8065 20.5062L23.8355 20.5561L23.8355 20.5561C24.1135 21.036 24.2554 21.2808 24.2453 21.4827C24.2345 21.709 24.1143 21.9179 23.9233 22.0417C23.7463 22.1583 23.4491 22.1583 22.8582 22.1583H22.8582Z" fill="white"/>
</svg>
