<svg width="31" height="31" viewBox="0 0 31 31" fill="none" xmlns="http://www.w3.org/2000/svg">
<rect x="0.262573" y="0.562012" width="30.0176" height="30.0176" rx="15.0088" fill="#0055D5"/>
<path fill-rule="evenodd" clip-rule="evenodd" d="M7.71317 9.99109C7.71317 9.99109 6.0023 8.62367 5.88463 12.0009C5.76697 14.6181 5.77015 19.6998 6.98176 22.1008C7.49375 23.0039 8.17746 22.7272 9.44948 21.8273C10.5561 21.01 14.5598 17.3211 16.2548 15.7025C17.9498 14.0838 21.3874 9.44094 22.103 12.5956C22.386 13.9217 22.7358 15.0474 22.4687 17.989C22.386 18.8953 21.998 19.5822 20.2299 18.3547C18.8943 17.496 17.6254 16.5738 17.6254 16.5738C17.6254 16.5738 17.3806 16.135 16.8018 16.8473C16.347 17.4165 16.1181 17.5565 16.8463 17.989C17.5777 18.4214 21.2761 20.9719 22.6944 21.3694C23.8647 21.7096 24.5325 21.7033 24.5675 19.4041C24.5611 17.5787 24.4562 12.3539 23.7916 10.1278C23.2891 8.74133 22.5513 8.11168 20.9581 9.66991C19.3649 11.2281 14.3404 16.1 11.5928 18.307C9.77067 19.6744 8.99155 20.9083 8.30466 18.6281C7.82129 16.9014 7.19482 11.5271 9.17282 12.551C10.4099 13.1425 11.0268 13.1394 10.5434 13.5114C10.0601 13.8803 8.67037 15.1555 8.67037 15.1555C8.67037 15.1555 8.24106 15.5021 8.4414 16.2526C8.64175 16.7773 8.64175 17.0381 9.71979 16.0237C10.7978 15.0092 11.5928 14.2428 11.5928 14.2428C11.5928 14.2428 11.7646 13.9725 12.2766 14.4718C12.7885 14.9711 12.8712 15.111 12.8712 15.111C12.8712 15.111 13.008 15.4831 13.5549 14.8375C14.1051 14.192 14.4581 13.7976 13.4182 13.1934C12.3815 12.5828 7.71317 9.99109 7.71317 9.99109Z" fill="white"/>
</svg>
