<svg width="31" height="31" viewBox="0 0 31 31" fill="none" xmlns="http://www.w3.org/2000/svg">
<rect y="0.506958" width="30.0176" height="30.0176" rx="15.0088" fill="#F6931A"/>
<path d="M20.5089 16.0546C20.7896 16.2033 21.057 16.376 21.308 16.5707C22.1842 17.2655 22.5546 18.169 22.4136 19.2764C22.3203 20.0978 22.03 20.8844 21.5675 21.5695C20.9987 22.3958 20.1911 22.8424 19.2171 23.0098C18.4095 23.1489 17.6029 23.1038 16.7972 22.9956C16.5039 22.9571 16.2124 22.9073 15.9219 22.8537C15.8279 22.8358 15.7987 22.8659 15.7771 22.9552C15.5553 23.8596 15.3249 24.7622 15.1049 25.6675C15.0739 25.7954 15.0363 25.818 14.9075 25.7832C14.3989 25.6459 13.8856 25.5209 13.3732 25.3977C13.2792 25.377 13.2688 25.3507 13.2904 25.2623C13.518 24.3636 13.7389 23.4629 13.9674 22.5641C13.9927 22.4626 13.9833 22.4203 13.8733 22.394C13.4766 22.2962 13.0811 22.1928 12.6869 22.0837C12.5863 22.0555 12.5571 22.0837 12.5336 22.1777C12.3118 23.0821 12.0824 23.9856 11.8614 24.89C11.8361 24.9916 11.8069 25.0085 11.7063 24.9841C11.1886 24.8499 10.6687 24.7205 10.1466 24.5958C10.0526 24.5732 10.0394 24.5337 10.0611 24.4444C10.2905 23.5372 10.5123 22.6281 10.7436 21.718C10.7737 21.6005 10.7492 21.5619 10.6345 21.53C9.50637 21.2479 8.38666 20.9659 7.26225 20.6838C7.18234 20.6641 7.1579 20.6444 7.1955 20.5597C7.47003 19.933 7.7411 19.3062 8.00872 18.6795C8.04257 18.5995 8.08488 18.6014 8.15633 18.6212C8.54367 18.7227 8.93007 18.828 9.32023 18.9145C9.80722 19.0226 10.0949 18.8318 10.2152 18.3504C10.5857 16.8644 10.9567 15.3786 11.3284 13.8932C11.6104 12.765 11.8925 11.6368 12.1745 10.5087C12.2883 10.0518 12.0485 9.61177 11.5794 9.43127C11.214 9.30678 10.8409 9.20597 10.4625 9.12948C10.3516 9.10222 10.2416 9.07307 10.1297 9.05239C10.0686 9.04111 10.0601 9.01761 10.0742 8.95838C10.2218 8.37267 10.3694 7.78696 10.5114 7.19937C10.5358 7.09407 10.5988 7.12792 10.6562 7.14202C11.1018 7.25202 11.5455 7.36671 11.9921 7.47577C12.6671 7.63935 13.3365 7.82832 14.0153 7.97968C14.1272 8.00507 14.1695 7.99096 14.1986 7.87251C14.4149 6.98031 14.6405 6.08624 14.8567 5.19874C14.884 5.08687 14.9178 5.0549 15.0354 5.08593C15.5449 5.22131 16.0573 5.34822 16.5697 5.47044C16.6778 5.49677 16.6881 5.53814 16.6637 5.63873C16.4399 6.51965 16.2228 7.40244 15.9999 8.28335C15.9764 8.37737 15.9858 8.40463 16.0855 8.42719C16.4841 8.51463 16.8827 8.60864 17.2785 8.70924C17.3923 8.73932 17.4243 8.70265 17.4496 8.60112C17.6602 7.73995 17.8765 6.88066 18.0861 6.01949C18.1153 5.90103 18.1482 5.85872 18.2836 5.89539C18.7875 6.03171 19.2961 6.15581 19.8038 6.27709C19.9034 6.30059 19.9232 6.33349 19.8978 6.43409C19.6703 7.33287 19.4512 8.23352 19.2209 9.13136C19.1917 9.24606 19.2209 9.2799 19.3224 9.31939C20.0279 9.54919 20.6995 9.87233 21.3193 10.2802C21.9012 10.6779 22.3835 11.163 22.6449 11.8333C22.9269 12.5676 22.8714 13.3065 22.6515 14.0417C22.3412 15.0828 21.659 15.7409 20.6048 16.016C20.569 16.0217 20.5455 16.0348 20.5089 16.0546ZM16.423 20.492H16.5452C16.9852 20.4779 17.4177 20.43 17.8191 20.2354C18.8335 19.7428 19.0507 18.3927 18.2497 17.571C17.7796 17.0916 17.1949 16.8189 16.5828 16.5914C15.8307 16.3094 15.0382 16.1476 14.256 15.9587C14.1422 15.9314 14.1206 15.9671 14.0971 16.063C13.7919 17.3034 13.4829 18.5425 13.1701 19.7804C13.1447 19.88 13.1758 19.9045 13.2641 19.9251C13.5998 20.006 13.9326 20.0972 14.2682 20.179C14.9723 20.3607 15.6943 20.4641 16.4211 20.4874L16.423 20.492ZM17.2334 14.6068C17.475 14.611 17.7163 14.5902 17.9536 14.5447C18.5806 14.4131 19.0338 14.0746 19.2162 13.4419C19.3986 12.8092 19.2491 12.2385 18.7461 11.7816C18.4794 11.5466 18.1765 11.3561 17.8492 11.2175C17.1187 10.8913 16.3393 10.7277 15.5628 10.5529C15.4688 10.5312 15.4612 10.5895 15.4453 10.6544C15.3324 11.1082 15.2187 11.5623 15.104 12.0167C14.9395 12.6748 14.7759 13.3394 14.6066 13.9994C14.5822 14.0934 14.5982 14.1348 14.7007 14.1574C14.8962 14.1987 15.0871 14.258 15.2817 14.3059C15.9229 14.4563 16.5669 14.5992 17.2315 14.6021L17.2334 14.6068Z" fill="white"/>
</svg>
