<svg width="31" height="31" viewBox="0 0 31 31" fill="none" xmlns="http://www.w3.org/2000/svg">
<rect x="0.0501709" y="0.506958" width="30.0176" height="30.0176" rx="15.0088" fill="#F0B90B"/>
<path d="M8.27173 15.5061L8.28271 19.5327L11.7041 21.546V23.9033L6.2804 20.7223V14.3286L8.27173 15.5061ZM8.27173 11.4795V13.8259L6.27917 12.6472V10.3008L8.27173 9.12207L10.274 10.3008L8.27173 11.4795ZM13.1329 10.3008L15.1255 9.12207L17.1278 10.3008L15.1255 11.4795L13.1329 10.3008Z" fill="white"/>
<path d="M9.71252 18.6981V16.3407L11.7051 17.5194V19.8658L9.71252 18.6981ZM13.1339 22.3903L15.1265 23.569L17.1288 22.3903V24.7367L15.1265 25.9154L13.1339 24.7367V22.3903ZM19.9865 10.3008L21.979 9.12207L23.9813 10.3008V12.6472L21.979 13.8259V11.4795L19.9865 10.3008ZM21.979 19.5327L21.99 15.5061L23.9825 14.3274V20.7211L18.5588 23.9021V21.5447L21.979 19.5327Z" fill="white"/>
<path d="M20.5503 18.698L18.5577 19.8657V17.5193L20.5503 16.3406V18.698Z" fill="white"/>
<path d="M20.5502 12.3141L20.5612 14.6714L17.13 16.6847V20.7211L15.1375 21.8888L13.1449 20.7211V16.6847L9.71374 14.6714V12.3141L11.7148 11.1354L15.1252 13.1584L18.5564 11.1354L20.5587 12.3141H20.5502ZM9.71252 8.28867L15.1265 5.09668L20.5502 8.28867L18.5576 9.46737L15.1265 7.44431L11.7051 9.46737L9.71252 8.28867Z" fill="white"/>
</svg>
