<svg width="31" height="31" viewBox="0 0 31 31" fill="none" xmlns="http://www.w3.org/2000/svg">
<rect x="0.575195" y="0.506958" width="30.0176" height="30.0176" rx="15.0088" fill="#0033AD"/>
<path d="M11.1733 15.3647C11.1317 16.0885 11.6888 16.7081 12.4126 16.7498C12.4386 16.7498 12.4647 16.7498 12.4907 16.7498C13.2197 16.7498 13.8081 16.1614 13.8029 15.4324C13.8029 14.7035 13.2145 14.1151 12.4855 14.1203C11.7878 14.1203 11.2098 14.667 11.1733 15.3647Z" fill="white"/>
<path d="M6.26879 15.0264C6.03448 15.0108 5.83141 15.1931 5.82099 15.4274C5.81058 15.6617 5.98762 15.8648 6.22193 15.8752C6.45624 15.8908 6.65411 15.7086 6.66973 15.4742C6.68535 15.2399 6.50311 15.0421 6.26879 15.0264Z" fill="white"/>
<path d="M11.0907 7.73144C11.299 7.6273 11.3823 7.36695 11.2782 7.15868C11.1741 6.9504 10.9137 6.86709 10.7054 6.97122C10.4972 7.07536 10.4138 7.33051 10.518 7.53878C10.6221 7.75227 10.8773 7.84079 11.0907 7.73144C11.0907 7.73144 11.0855 7.73144 11.0907 7.73144Z" fill="white"/>
<path d="M12.4239 10.0586C12.7467 9.89718 12.8769 9.50145 12.7155 9.17862C12.554 8.85578 12.1583 8.72561 11.8355 8.88703C11.5126 9.04844 11.3825 9.44417 11.5439 9.767C11.7053 10.0898 12.101 10.22 12.4239 10.0586Z" fill="white"/>
<path d="M7.93518 11.6574C8.18511 11.8188 8.51836 11.7511 8.68498 11.5012C8.8464 11.2513 8.77871 10.918 8.52877 10.7514C8.27884 10.59 7.94559 10.6577 7.77897 10.9076C7.61235 11.1575 7.68524 11.496 7.93518 11.6574Z" fill="white"/>
<path d="M8.73221 14.7921C8.36772 14.7713 8.06051 15.0473 8.03968 15.4117C8.01885 15.7762 8.29482 16.0834 8.65931 16.1043C9.0238 16.1251 9.33101 15.8491 9.35184 15.4846C9.37266 15.1254 9.09669 14.8129 8.73221 14.7921Z" fill="white"/>
<path d="M8.00744 19.2025C7.74188 19.3379 7.63253 19.6607 7.76792 19.9315C7.9033 20.197 8.22613 20.3064 8.49689 20.171C8.76245 20.0356 8.87179 19.7128 8.73641 19.442C8.60103 19.1765 8.27299 19.0671 8.00744 19.2025Z" fill="white"/>
<path d="M10.5601 13.4329C10.9193 13.6672 11.3984 13.5683 11.6275 13.209C11.8618 12.8497 11.7629 12.3707 11.4036 12.1416C11.0443 11.9073 10.5653 12.0062 10.3362 12.3655C10.1018 12.7196 10.2008 13.1986 10.5601 13.4329Z" fill="white"/>
<path d="M18.6563 10.0069C18.9583 10.2048 19.3697 10.1215 19.5675 9.81945C19.7654 9.51744 19.6821 9.10609 19.3801 8.90823C19.0781 8.71036 18.6667 8.79367 18.4689 9.09568C18.2658 9.40289 18.3491 9.80903 18.6563 10.0069Z" fill="white"/>
<path d="M19.9989 7.68976C20.1967 7.81993 20.4571 7.76266 20.5873 7.56479C20.7174 7.36693 20.6602 7.10658 20.4623 6.9764C20.2644 6.84623 20.0041 6.90351 19.8739 7.09616C19.7489 7.29403 19.8062 7.55958 19.9989 7.68976Z" fill="white"/>
<path d="M18.7552 14.1101C18.0314 14.0684 17.4066 14.6256 17.3701 15.3494C17.3285 16.0731 17.8856 16.698 18.6094 16.7344C18.6354 16.7344 18.6614 16.7344 18.6823 16.7344C19.406 16.7344 19.9944 16.146 19.9944 15.4171C19.9996 14.7245 19.4529 14.1466 18.7552 14.1101Z" fill="white"/>
<path d="M12.8561 13.3389C13.08 13.7815 13.533 14.0627 14.0329 14.0627C14.7567 14.0627 15.3451 13.4743 15.3451 12.7453C15.3451 12.5422 15.2982 12.3392 15.2045 12.1517C14.8764 11.5009 14.085 11.2405 13.4393 11.5685C12.7885 11.9018 12.5281 12.6932 12.8561 13.3389Z" fill="white"/>
<path d="M23.1602 11.6573C23.4258 11.522 23.5299 11.1939 23.3945 10.9284C23.2591 10.6628 22.9311 10.5587 22.6656 10.6941C22.4 10.8294 22.2959 11.1523 22.426 11.4178C22.5666 11.6834 22.8895 11.7927 23.1602 11.6573Z" fill="white"/>
<path d="M19.8279 12.0739C19.4478 12.2665 19.2916 12.73 19.4843 13.1101C19.6769 13.4902 20.1403 13.6464 20.5204 13.4537C20.9005 13.2611 21.0568 12.7977 20.8641 12.4175C20.6714 12.0374 20.208 11.8864 19.8279 12.0739Z" fill="white"/>
<path d="M15.5318 7.4919C15.8286 7.50752 16.0837 7.27841 16.1046 6.98162C16.1254 6.68482 15.8911 6.42968 15.5943 6.40885C15.2975 6.39323 15.0423 6.61713 15.0215 6.91393C15.0059 7.21593 15.235 7.47107 15.5318 7.4919Z" fill="white"/>
<path d="M15.5266 10.8921C15.9535 10.9181 16.318 10.5901 16.3388 10.1631C16.3649 9.73613 16.0368 9.37164 15.6099 9.35081C15.1829 9.32478 14.8184 9.65282 14.7976 10.0798C14.7768 10.5068 15.0996 10.8712 15.5266 10.8921Z" fill="white"/>
<path d="M11.341 18.786C11.7211 18.5933 11.8773 18.1299 11.6847 17.7498C11.492 17.3697 11.0286 17.2135 10.6485 17.4061C10.2684 17.5988 10.1122 18.0622 10.3048 18.4423C10.4975 18.8224 10.9609 18.9786 11.341 18.786Z" fill="white"/>
<path d="M16.0264 12.0217C15.6307 12.6309 15.7973 13.4432 16.4065 13.8389C17.0157 14.2347 17.828 14.068 18.2237 13.4588C18.6195 12.8496 18.4528 12.0373 17.8436 11.6416C17.6301 11.501 17.3802 11.4281 17.1251 11.4281C16.6825 11.4281 16.2711 11.652 16.0264 12.0217Z" fill="white"/>
<path d="M18.3126 17.5205C17.9846 16.8696 17.1931 16.6093 16.5475 16.9373C15.8966 17.2654 15.6363 18.0568 15.9643 18.7025C16.2923 19.3534 17.0838 19.6137 17.7295 19.2857C18.3751 18.9628 18.6407 18.1818 18.3178 17.5309C18.3178 17.5257 18.3178 17.5257 18.3126 17.5205Z" fill="white"/>
<path d="M20.6089 17.4267C20.2496 17.1924 19.7706 17.2914 19.5415 17.6506C19.3072 18.0099 19.4061 18.489 19.7654 18.7181C20.1247 18.9524 20.6037 18.8534 20.8328 18.4942C21.0671 18.1401 20.9682 17.661 20.6089 17.4267Z" fill="white"/>
<path d="M23.1289 15.4533C23.1498 15.0888 22.8738 14.7816 22.5093 14.7607C22.1448 14.7399 21.8376 15.0159 21.8168 15.3804C21.796 15.7449 22.0719 16.0521 22.4364 16.0729C22.7957 16.0937 23.1081 15.8126 23.1289 15.4533Z" fill="white"/>
<path d="M24.9455 14.9847C24.7112 14.9691 24.5082 15.1513 24.4978 15.3856C24.4873 15.6199 24.6644 15.823 24.8987 15.8334C25.133 15.8491 25.3309 15.6668 25.3465 15.4325C25.3569 15.1982 25.1799 15.0003 24.9455 14.9847Z" fill="white"/>
<path d="M23.233 19.2023C22.9831 19.0409 22.6498 19.1086 22.4832 19.3585C22.3218 19.6085 22.3895 19.9417 22.6394 20.1083C22.8894 20.2698 23.2226 20.2021 23.3892 19.9521C23.5558 19.7022 23.483 19.3637 23.233 19.2023Z" fill="white"/>
<path d="M11.1637 23.1701C10.9658 23.04 10.7055 23.0972 10.5753 23.2899C10.4451 23.4878 10.5024 23.7481 10.695 23.8783C10.8929 24.0085 11.1533 23.9512 11.2834 23.7585C11.4188 23.5659 11.3615 23.3003 11.1637 23.1701Z" fill="white"/>
<path d="M20.077 23.1282C19.8687 23.2323 19.7854 23.4927 19.8896 23.7009C19.9937 23.9092 20.254 23.9925 20.4623 23.8884C20.6706 23.7842 20.7539 23.5291 20.6498 23.3208C20.5456 23.1073 20.2905 23.0188 20.077 23.1282C20.0822 23.1282 20.077 23.1282 20.077 23.1282Z" fill="white"/>
<path d="M15.1412 18.8377C15.5369 18.2285 15.3703 17.4162 14.7611 17.0153C14.1518 16.6196 13.3395 16.7862 12.9386 17.3954C12.5377 18.0046 12.7095 18.8169 13.3187 19.2178C13.5322 19.3584 13.7821 19.4313 14.0373 19.4313C14.4851 19.4365 14.8964 19.2126 15.1412 18.8377Z" fill="white"/>
<path d="M12.5124 20.8529C12.2104 20.6551 11.7991 20.7384 11.6012 21.0404C11.4034 21.3424 11.4867 21.7537 11.7887 21.9516C12.0907 22.1495 12.502 22.0662 12.6999 21.7641C12.903 21.4621 12.8197 21.0508 12.5124 20.8529Z" fill="white"/>
<path d="M15.578 23.3679C15.2812 23.3523 15.026 23.5814 15.0052 23.8782C14.9844 24.175 15.2187 24.4302 15.5155 24.451C15.8123 24.4666 16.0674 24.2427 16.0882 23.9459C16.1039 23.6439 15.8748 23.3888 15.578 23.3679Z" fill="white"/>
<path d="M15.5847 19.9678C15.1578 19.9417 14.7933 20.2698 14.7724 20.6967C14.7464 21.1237 15.0744 21.4882 15.5014 21.509C15.9284 21.5298 16.2929 21.207 16.3137 20.78C16.3397 20.3583 16.0117 19.9886 15.5847 19.9678Z" fill="white"/>
<path d="M18.745 20.8009C18.4222 20.9676 18.292 21.3633 18.4586 21.6861C18.6253 22.0089 19.021 22.1391 19.3438 21.9725C19.6667 21.8111 19.7968 21.4154 19.6354 21.0925C19.4688 20.7697 19.0731 20.6343 18.745 20.8009Z" fill="white"/>
</svg>
