<svg width="31" height="31" viewBox="0 0 31 31" fill="none" xmlns="http://www.w3.org/2000/svg">
<rect x="0.837891" y="0.534485" width="30.0176" height="30.0176" rx="15.0088" fill="#2E3148"/>
<path d="M15.8925 3.48505C14.4155 3.48505 13.2178 8.84246 13.2178 15.4512C13.2178 22.06 14.4155 27.4174 15.8925 27.4174C17.3696 27.4174 18.5673 22.06 18.5673 15.4512C18.5673 8.84246 17.3696 3.48505 15.8925 3.48505ZM16.0772 26.7421C15.9083 26.9674 15.7394 26.7983 15.7394 26.7983C15.0592 26.0102 14.719 24.5459 14.719 24.5459C13.5292 20.7168 13.8124 12.4953 13.8124 12.4953C14.3716 5.96835 15.3888 4.42648 15.7349 4.08417C15.7703 4.04923 15.8168 4.02788 15.8663 4.02388C15.9159 4.01988 15.9652 4.03347 16.0057 4.06228C16.508 4.41816 16.9292 5.9065 16.9292 5.9065C18.1731 10.524 18.0605 14.86 18.0605 14.86C18.1731 18.6328 17.4371 22.8561 17.4371 22.8561C16.8706 26.0658 16.0772 26.7421 16.0772 26.7421Z" fill="#6F7390"/>
<path d="M26.273 9.49624C25.5375 8.21458 20.295 9.84194 14.5598 13.1306C8.82459 16.4193 4.77905 20.1245 5.51392 21.4056C6.24878 22.6867 11.4919 21.0599 17.2271 17.7712C22.9623 14.4826 27.0078 10.7774 26.273 9.49624ZM6.19241 21.2298C5.91085 21.1943 5.97445 20.9629 5.97445 20.9629C6.31983 19.9809 7.4189 18.9571 7.4189 18.9571C10.1494 16.0194 17.4221 12.1739 17.4221 12.1739C23.3612 9.41064 25.206 9.52722 25.674 9.65607C25.722 9.66947 25.7637 9.69945 25.7918 9.74068C25.8198 9.78192 25.8324 9.83175 25.8272 9.88135C25.7709 10.4944 24.6869 11.6 24.6869 11.6C21.303 14.9781 17.4857 17.0385 17.4857 17.0385C14.2691 19.0145 10.2396 20.4769 10.2396 20.4769C7.17347 21.5817 6.19252 21.2298 6.19252 21.2298H6.19241Z" fill="#6F7390"/>
<path d="M26.2465 21.4481C26.9876 20.1698 22.9522 16.4477 17.2372 13.1343C11.5221 9.82085 6.28021 8.17334 5.53976 9.4538C4.79931 10.7343 8.83401 14.4542 14.5523 17.7676C20.2707 21.081 25.506 22.7287 26.2465 21.4481ZM6.03084 9.94772C5.92137 9.68817 6.15246 9.62566 6.15246 9.62566C7.17555 9.43245 8.61266 9.87273 8.61266 9.87273C12.5223 10.763 19.4939 15.13 19.4939 15.13C24.8615 18.886 25.6847 20.5404 25.8081 21.01C25.8206 21.0582 25.8157 21.1092 25.7943 21.1541C25.7729 21.1991 25.7363 21.235 25.6909 21.2555C25.1312 21.5118 23.6321 21.13 23.6321 21.13C19.0118 19.8911 15.3167 17.6213 15.3167 17.6213C11.9966 15.8306 8.71359 13.0753 8.71359 13.0753C6.21901 10.9749 6.0316 9.95057 6.0316 9.95057L6.03084 9.94772Z" fill="#6F7390"/>
<path d="M15.8653 16.8308C16.6428 16.8308 17.2731 16.2005 17.2731 15.423C17.2731 14.6455 16.6428 14.0153 15.8653 14.0153C15.0878 14.0153 14.4575 14.6455 14.4575 15.423C14.4575 16.2005 15.0878 16.8308 15.8653 16.8308Z" fill="#B7B9C8"/>
<path d="M21.6376 10.8616C22.0885 10.8616 22.4541 10.4835 22.4541 10.017C22.4541 9.55047 22.0885 9.1723 21.6376 9.1723C21.1866 9.1723 20.821 9.55047 20.821 10.017C20.821 10.4835 21.1866 10.8616 21.6376 10.8616Z" fill="#B7B9C8"/>
<path d="M8.2345 13.7338C8.68545 13.7338 9.05103 13.3556 9.05103 12.8891C9.05103 12.4226 8.68545 12.0444 8.2345 12.0444C7.78354 12.0444 7.41797 12.4226 7.41797 12.8891C7.41797 13.3556 7.78354 13.7338 8.2345 13.7338Z" fill="#B7B9C8"/>
<path d="M14.2035 24.095C14.6544 24.095 15.02 23.7168 15.02 23.2503C15.02 22.7838 14.6544 22.4056 14.2035 22.4056C13.7525 22.4056 13.387 22.7838 13.387 23.2503C13.387 23.7168 13.7525 24.095 14.2035 24.095Z" fill="#B7B9C8"/>
</svg>
