<svg width="31" height="31" viewBox="0 0 31 31" fill="none" xmlns="http://www.w3.org/2000/svg">
<rect x="0.457031" y="0.520752" width="30.0176" height="30.0176" rx="15.0088" fill="#F6B650"/>
<path d="M15.7569 16.5341H21.0926C21.2063 16.5341 21.2601 16.5341 21.2683 16.385C21.3119 15.8422 21.3119 15.2963 21.2683 14.7528C21.2683 14.6473 21.2158 14.6037 21.1014 14.6037H10.4825C10.3511 14.6037 10.3157 14.6473 10.3157 14.7705V16.3326C10.3157 16.5341 10.3157 16.5341 10.5261 16.5341H15.7569ZM20.6724 12.7782C20.6876 12.7384 20.6876 12.6948 20.6724 12.6556C20.5833 12.4616 20.4778 12.2765 20.3552 12.1027C20.1707 11.8057 19.9533 11.5321 19.7056 11.2863C19.5887 11.1378 19.4535 11.0045 19.3018 10.8913C18.5423 10.2449 17.6393 9.78743 16.6687 9.55743C16.179 9.44748 15.6786 9.39503 15.1768 9.39945H10.4642C10.3328 9.39945 10.3151 9.4519 10.3151 9.56627V12.6815C10.3151 12.8129 10.3151 12.8483 10.4819 12.8483H20.6092C20.6092 12.8483 20.697 12.8306 20.7147 12.7782H20.6718H20.6724ZM20.6724 18.3597C20.5233 18.3432 20.3729 18.3432 20.2238 18.3597H10.4914C10.3599 18.3597 10.3157 18.3597 10.3157 18.5353V21.5811C10.3157 21.7213 10.3157 21.7567 10.4914 21.7567H14.9847C15.1996 21.7732 15.4144 21.758 15.6248 21.7131C16.277 21.6664 16.9183 21.5248 17.53 21.2917C17.7524 21.2146 17.9673 21.1141 18.1701 20.9934H18.2314C19.2848 20.4456 20.1403 19.5849 20.68 18.5284C20.68 18.5284 20.7413 18.3957 20.6724 18.3609V18.3597ZM8.55208 23.3358V23.2834V21.2386V20.5454V18.4829C8.55208 18.3685 8.55208 18.3515 8.4118 18.3515H6.50728C6.40175 18.3515 6.35815 18.3515 6.35815 18.2112V16.5436H8.39411C8.50785 16.5436 8.55208 16.5436 8.55208 16.3945V14.7446C8.55208 14.6391 8.55208 14.6132 8.4118 14.6132H6.50728C6.40175 14.6132 6.35815 14.6132 6.35815 14.4729V12.9286C6.35815 12.8319 6.35815 12.806 6.49843 12.806H8.38526C8.5167 12.806 8.55208 12.806 8.55208 12.6392V7.90882C8.55208 7.76854 8.55208 7.73315 8.72775 7.73315H15.3095C15.7872 7.75211 16.2618 7.80456 16.7313 7.89113C17.6987 8.06995 18.6282 8.4156 19.4781 8.9091C20.0418 9.24085 20.5606 9.64147 21.0225 10.1027C21.37 10.4636 21.6834 10.8541 21.9615 11.2699C22.2376 11.6913 22.467 12.1419 22.6471 12.6126C22.6692 12.7352 22.7867 12.818 22.9093 12.7971H24.4802C24.6817 12.7971 24.6817 12.7971 24.6906 12.9905V14.4299C24.6906 14.5702 24.6381 14.6056 24.4972 14.6056H23.2859C23.1633 14.6056 23.1279 14.6056 23.1368 14.7636C23.1848 15.2982 23.1848 15.8346 23.1368 16.3692C23.1368 16.5183 23.1368 16.536 23.3042 16.536H24.69C24.7513 16.615 24.69 16.694 24.69 16.7736C24.6988 16.8754 24.6988 16.9784 24.69 17.0801V18.1423C24.69 18.2914 24.6464 18.3357 24.5143 18.3357H22.8556C22.7399 18.3135 22.6275 18.3875 22.6009 18.5025C22.206 19.5293 21.5741 20.45 20.7577 21.188C20.4594 21.4566 20.146 21.7093 19.8187 21.9425C19.4674 22.1447 19.1255 22.3551 18.7653 22.5219C18.1025 22.8202 17.4074 23.0401 16.694 23.1797C16.0166 23.3011 15.3298 23.356 14.6404 23.3466H8.54955V23.3377L8.55208 23.3358Z" fill="white"/>
</svg>
