<svg width="31" height="31" viewBox="0 0 31 31" fill="none" xmlns="http://www.w3.org/2000/svg">
<rect x="0.694092" y="0.575806" width="30.0176" height="30.0176" rx="15.0088" fill="#008DE3"/>
<g clip-path="url(#clip0_76_723)">
<path d="M4.60767 17.2865L4.70719 16.85C4.83116 16.3165 4.94291 15.7805 5.09569 15.255C5.1772 14.9609 5.31022 14.6836 5.48856 14.436C5.76678 14.0627 6.16561 13.7971 6.61738 13.6844C6.92125 13.6039 7.23458 13.5649 7.5489 13.5683C10.2902 13.5683 13.0321 13.5683 15.7746 13.5683C15.8261 13.5683 15.8348 13.5779 15.8235 13.6294C15.6751 14.3007 15.5328 14.973 15.3442 15.6373C15.2548 15.9659 15.0978 16.2722 14.8832 16.5366C14.5976 16.8749 14.2097 17.1112 13.778 17.2097C13.4746 17.2834 13.163 17.3183 12.8508 17.3135C10.1235 17.3135 7.39612 17.3135 4.66877 17.3135H4.60767V17.2865Z" fill="white"/>
<path d="M7.89038 24.4392L8.09466 23.2955C8.19942 22.7065 8.30448 22.1166 8.40983 21.5259C8.45523 21.264 8.49714 21.0108 8.54603 20.7524C8.55301 20.7122 8.56785 20.7 8.60888 20.7L14.2382 20.7044C14.7314 20.7044 15.2238 20.7044 15.7171 20.7044C16.3968 20.7077 17.0754 20.646 17.7434 20.5202C18.3868 20.4034 19.0063 20.1807 19.5767 19.861C20.2915 19.4482 20.8671 18.8318 21.2302 18.0905C21.4683 17.5974 21.6538 17.0807 21.7838 16.5488C21.9313 15.9865 22.0588 15.4199 22.1557 14.8472C22.2468 14.3664 22.2889 13.8777 22.2814 13.3884C22.2785 12.898 22.1761 12.4132 21.9802 11.9636C21.7183 11.3909 21.2757 10.9937 20.7143 10.7222C20.2983 10.5299 19.8576 10.3965 19.4048 10.3258C18.8359 10.2338 18.2603 10.19 17.684 10.1948C15.9153 10.1948 14.1462 10.1934 12.3769 10.1905C11.7326 10.1905 11.0874 10.1905 10.4431 10.1905C10.3934 10.1905 10.3864 10.1756 10.3942 10.1302C10.5461 9.28864 10.6972 8.44647 10.8473 7.6037C10.9137 7.23354 10.9797 6.86338 11.0455 6.49321C11.0507 6.46353 11.0603 6.4452 11.0944 6.45131C11.1075 6.45218 11.1206 6.45218 11.1337 6.45131C13.6637 6.45131 16.1937 6.45131 18.7238 6.45131C19.3698 6.45131 20.0159 6.45829 20.6602 6.52028C21.5471 6.59015 22.4204 6.77956 23.2566 7.08338C23.9524 7.33611 24.5906 7.72555 25.1336 8.22878C25.7031 8.77351 26.131 9.44899 26.3802 10.1966C26.5302 10.6364 26.6346 11.0904 26.6919 11.5515C26.7572 12.0648 26.782 12.5823 26.7661 13.0994C26.7523 13.5958 26.7136 14.0911 26.65 14.5836C26.5706 15.2078 26.4658 15.8276 26.3261 16.4405C26.0675 17.6368 25.6429 18.7911 25.0646 19.8698C24.6243 20.6849 24.0616 21.4277 23.3962 22.0724C22.6165 22.814 21.6963 23.3923 20.6898 23.7731C20.0323 24.0278 19.3468 24.2036 18.6478 24.2969C18.2 24.358 17.7495 24.3947 17.2981 24.4183C16.7088 24.4479 16.1204 24.4497 15.5311 24.4497H7.95761C7.93473 24.4506 7.91188 24.4471 7.89038 24.4392Z" fill="white"/>
</g>
<defs>
<clipPath id="clip0_76_723">
<rect width="22.1627" height="17.9975" fill="white" transform="translate(4.60938 6.44879)"/>
</clipPath>
</defs>
</svg>
