<svg width="31" height="31" viewBox="0 0 31 31" fill="none" xmlns="http://www.w3.org/2000/svg">
<rect x="0.169067" y="0.575806" width="30.0176" height="30.0176" rx="15.0088" fill="#0197DA"/>
<g clip-path="url(#clip0_76_737)">
<path d="M17.733 10.7033L13.3086 13.2515C13.2525 13.2837 13.2061 13.3303 13.174 13.3865C13.1419 13.4426 13.1254 13.5063 13.1261 13.5709V15.6739C13.1255 15.7367 13.1422 15.7984 13.1744 15.8523C13.2066 15.9063 13.253 15.9502 13.3086 15.9795L15.1516 17.0427C15.204 17.0765 15.2649 17.0945 15.3272 17.0945C15.3895 17.0945 15.4505 17.0765 15.5028 17.0427L23.1073 12.6625C24.3987 11.9159 24.3987 9.759 23.1073 9.01791L16.2716 5.08155C15.9865 4.90918 15.6597 4.81805 15.3266 4.81805C14.9934 4.81805 14.6666 4.90918 14.3815 5.08155L7.54715 9.01652C7.25537 9.17939 7.01266 9.4176 6.84436 9.70629C6.67606 9.99498 6.58835 10.3236 6.59038 10.6577C6.59038 13.2958 6.60144 15.92 6.59038 18.5387C6.58795 18.8723 6.67488 19.2004 6.84217 19.4891C7.00945 19.7777 7.25099 20.0162 7.54165 20.1799L14.3774 24.1301C14.6643 24.2972 14.9904 24.3853 15.3224 24.3853C15.6544 24.3853 15.9805 24.2972 16.2674 24.1301L23.1087 20.1799C23.3989 20.0166 23.6395 19.7778 23.805 19.4889C23.9705 19.2 24.0548 18.8717 24.0489 18.5387V15.1001L15.9038 19.8135C15.7254 19.9187 15.522 19.9742 15.3148 19.9742C15.1077 19.9742 14.9043 19.9187 14.7258 19.8135L11.0881 17.705C10.9072 17.6036 10.7571 17.4553 10.6534 17.2757C10.5498 17.0961 10.4965 16.8919 10.4991 16.6846V12.5187C10.4983 12.3138 10.5514 12.1123 10.6531 11.9345C10.7548 11.7566 10.9015 11.6086 11.0784 11.5053C12.2965 10.8001 13.5243 10.095 14.741 9.38983C14.9202 9.28388 15.1246 9.22799 15.3328 9.22799C15.541 9.22799 15.7453 9.28388 15.9245 9.38983L17.7386 10.4241C17.7744 10.4466 17.7998 10.4823 17.8094 10.5234C17.8189 10.5646 17.8119 10.6079 17.7897 10.6439C17.7766 10.6685 17.757 10.6891 17.733 10.7033Z" fill="white"/>
</g>
<defs>
<clipPath id="clip0_76_737">
<rect width="17.4862" height="19.5767" fill="white" transform="translate(6.59033 4.81744)"/>
</clipPath>
</defs>
</svg>
