<svg width="31" height="31" viewBox="0 0 31 31" fill="none" xmlns="http://www.w3.org/2000/svg">
<rect x="0.525024" y="0.562012" width="30.0176" height="30.0176" rx="15.0088" fill="#0D022B"/>
<g clip-path="url(#clip0_76_805)">
<path fill-rule="evenodd" clip-rule="evenodd" d="M21.0991 10.1064C21.0274 10.0347 20.9844 9.96296 20.9844 9.86256C20.9844 9.76216 21.0274 9.69044 21.0991 9.61873C21.2425 9.48964 21.472 9.48964 21.6298 9.61873C21.7015 9.69044 21.7446 9.76216 21.7446 9.86256C21.7446 9.96296 21.7015 10.0347 21.6298 10.1064C21.5581 10.1638 21.4577 10.2068 21.3716 10.2068C21.2712 10.2211 21.1708 10.1924 21.0991 10.1064Z" fill="white"/>
<path fill-rule="evenodd" clip-rule="evenodd" d="M20.1801 11.096C20.1227 11.0242 20.0797 10.9525 20.0797 10.8521C20.0797 10.7517 20.1227 10.68 20.1801 10.6083C20.3092 10.4792 20.5387 10.4792 20.6678 10.6083C20.7251 10.68 20.7682 10.7517 20.7682 10.8521C20.7682 10.9525 20.7251 11.0242 20.6678 11.096C20.5961 11.1533 20.5243 11.1964 20.4239 11.1964C20.3235 11.1964 20.2518 11.1533 20.1801 11.096Z" fill="white"/>
<path fill-rule="evenodd" clip-rule="evenodd" d="M19.176 12.0427C19.1186 11.9853 19.0756 11.8992 19.0756 11.7988C19.0756 11.6984 19.1186 11.6267 19.176 11.555C19.3051 11.4259 19.5345 11.4259 19.6636 11.555C19.721 11.6124 19.764 11.6984 19.764 11.7988C19.764 11.8992 19.721 11.971 19.6636 12.0427C19.5919 12.1144 19.5202 12.1431 19.4198 12.1431C19.3194 12.1431 19.2333 12.1 19.176 12.0427Z" fill="white"/>
<path fill-rule="evenodd" clip-rule="evenodd" d="M18.2151 13.0035C18.1434 12.9461 18.1003 12.8601 18.1003 12.7597C18.1003 12.6593 18.1434 12.5875 18.2151 12.5158C18.3585 12.3867 18.588 12.3867 18.7458 12.5158C18.8175 12.5732 18.8605 12.6593 18.8605 12.7597C18.8605 12.8601 18.8175 12.9461 18.7458 13.0035C18.6741 13.0752 18.5737 13.1039 18.4876 13.1039C18.3872 13.1039 18.3011 13.0895 18.2151 13.0035Z" fill="white"/>
<path fill-rule="evenodd" clip-rule="evenodd" d="M17.298 13.9646C17.2263 13.9072 17.1976 13.8212 17.1976 13.7208C17.1976 13.6204 17.2407 13.5487 17.298 13.4769C17.4271 13.3479 17.6566 13.3479 17.7857 13.4769C17.8574 13.5343 17.8861 13.6204 17.8861 13.7208C17.8861 13.8212 17.8431 13.9072 17.7857 13.9646C17.7283 14.0363 17.6423 14.065 17.5419 14.065C17.4558 14.0793 17.3554 14.0507 17.298 13.9646Z" fill="white"/>
<path fill-rule="evenodd" clip-rule="evenodd" d="M16.1937 14.6816C16.1937 14.5812 16.2368 14.5095 16.2941 14.4378C16.4232 14.3087 16.6527 14.3087 16.7818 14.4378C16.8535 14.5095 16.8822 14.5812 16.8822 14.6816C16.8822 14.782 16.8392 14.8537 16.7818 14.9254C16.7244 14.9828 16.6384 15.0258 16.538 15.0258C16.4376 15.0258 16.3658 14.9828 16.2941 14.9254C16.2224 14.868 16.1937 14.782 16.1937 14.6816Z" fill="white"/>
<path fill-rule="evenodd" clip-rule="evenodd" d="M14.4 16.8044C14.3426 16.7471 14.2996 16.661 14.2996 16.5606C14.2996 16.4602 14.3426 16.3885 14.4 16.3168C14.529 16.1877 14.7585 16.1877 14.8876 16.3168C14.9593 16.3885 14.988 16.4602 14.988 16.5606C14.988 16.661 14.945 16.7327 14.8876 16.8044C14.8303 16.8762 14.7442 16.9049 14.6438 16.9049C14.5577 16.9192 14.4717 16.8905 14.4 16.8044Z" fill="white"/>
<path fill-rule="evenodd" clip-rule="evenodd" d="M13.4102 17.7654C13.3384 17.7081 13.2954 17.622 13.2954 17.5216C13.2954 17.4212 13.3384 17.3495 13.4102 17.2778C13.5536 17.1487 13.7831 17.1487 13.9408 17.2778C14.0126 17.3495 14.0556 17.4212 14.0556 17.5216C14.0556 17.622 14.0126 17.6937 13.9408 17.7654C13.8691 17.8372 13.7687 17.8658 13.6827 17.8658C13.5679 17.8802 13.4819 17.8372 13.4102 17.7654Z" fill="white"/>
<path fill-rule="evenodd" clip-rule="evenodd" d="M12.4791 18.7407C12.4217 18.6834 12.3787 18.5973 12.3787 18.4969C12.3787 18.3965 12.4217 18.3104 12.4791 18.2531C12.6082 18.124 12.8376 18.124 12.9667 18.2531C13.0241 18.3104 13.0671 18.3965 13.0671 18.4969C13.0671 18.5973 13.0241 18.669 12.9667 18.7407C12.895 18.8124 12.8233 18.8411 12.7229 18.8411C12.6225 18.8411 12.5651 18.7981 12.4791 18.7407Z" fill="white"/>
<path fill-rule="evenodd" clip-rule="evenodd" d="M11.5179 19.7017C11.4462 19.6444 11.4175 19.5583 11.4175 19.4579C11.4175 19.3575 11.4605 19.2858 11.5179 19.2141C11.647 19.085 11.8765 19.085 12.0055 19.2141C12.0629 19.2858 12.1059 19.3575 12.1059 19.4579C12.1059 19.5583 12.0629 19.6444 12.0055 19.7017C11.9338 19.7734 11.8621 19.8021 11.7617 19.8021C11.6757 19.8021 11.5753 19.7734 11.5179 19.7017Z" fill="white"/>
<path fill-rule="evenodd" clip-rule="evenodd" d="M10.5283 20.6625C10.4566 20.6052 10.4136 20.5191 10.4136 20.4187C10.4136 20.3183 10.4566 20.2466 10.5283 20.1749C10.6717 20.0458 10.9012 20.0458 11.0303 20.1749C11.102 20.2466 11.1451 20.3183 11.1451 20.4187C11.1451 20.5191 11.102 20.6052 11.0303 20.6625C10.9586 20.7199 10.8582 20.7629 10.7721 20.7629C10.6717 20.7629 10.5857 20.7343 10.5283 20.6625Z" fill="white"/>
<path fill-rule="evenodd" clip-rule="evenodd" d="M9.5816 21.6237C9.50989 21.5519 9.4812 21.4802 9.4812 21.3798C9.4812 21.2794 9.52423 21.2077 9.5816 21.136C9.71069 21.0069 9.94018 21.0069 10.0693 21.136C10.141 21.2077 10.1697 21.2794 10.1697 21.3798C10.1697 21.4802 10.1266 21.5519 10.0693 21.6237C10.0119 21.681 9.92583 21.7241 9.82543 21.7241C9.75372 21.7384 9.66766 21.6954 9.5816 21.6237Z" fill="white"/>
<path fill-rule="evenodd" clip-rule="evenodd" d="M10.0693 10.1064C10.1266 10.0347 10.1697 9.96296 10.1697 9.86256C10.1697 9.76216 10.1266 9.69044 10.0693 9.61873C9.94018 9.48964 9.71069 9.48964 9.5816 9.61873C9.50989 9.69044 9.4812 9.76216 9.4812 9.86256C9.4812 9.96296 9.52423 10.0347 9.5816 10.1064C9.63897 10.1638 9.72503 10.2068 9.82543 10.2068C9.92583 10.2211 10.0119 10.1924 10.0693 10.1064Z" fill="white"/>
<path fill-rule="evenodd" clip-rule="evenodd" d="M11.0301 11.096C11.1018 11.0242 11.1448 10.9525 11.1448 10.8521C11.1448 10.7517 11.1018 10.68 11.0301 10.6083C10.8866 10.4792 10.6572 10.4792 10.4994 10.6083C10.4277 10.68 10.3846 10.7517 10.3846 10.8521C10.3846 10.9525 10.4277 11.0242 10.4994 11.096C10.5711 11.1533 10.6715 11.1964 10.7576 11.1964C10.858 11.182 10.9584 11.1533 11.0301 11.096Z" fill="white"/>
<path fill-rule="evenodd" clip-rule="evenodd" d="M12.0055 12.0427C12.0629 11.9853 12.1059 11.8992 12.1059 11.7988C12.1059 11.6984 12.0629 11.6267 12.0055 11.555C11.8765 11.4259 11.647 11.4259 11.5179 11.555C11.4605 11.6124 11.4175 11.6984 11.4175 11.7988C11.4175 11.8992 11.4605 11.971 11.5179 12.0427C11.5896 12.1144 11.6613 12.1431 11.7617 12.1431C11.8478 12.1431 11.9338 12.1 12.0055 12.0427Z" fill="white"/>
<path fill-rule="evenodd" clip-rule="evenodd" d="M12.9667 13.0035C13.0241 12.9461 13.0671 12.8601 13.0671 12.7597C13.0671 12.6593 13.0241 12.5875 12.9667 12.5158C12.8376 12.3867 12.6082 12.3867 12.4791 12.5158C12.4217 12.5732 12.3787 12.6593 12.3787 12.7597C12.3787 12.8601 12.4217 12.9461 12.4791 13.0035C12.5508 13.0752 12.6225 13.1039 12.7229 13.1039C12.809 13.1039 12.895 13.0895 12.9667 13.0035Z" fill="white"/>
<path fill-rule="evenodd" clip-rule="evenodd" d="M13.9122 13.9646C13.9839 13.9072 14.0269 13.8212 14.0269 13.7208C14.0269 13.6204 13.9839 13.5487 13.9122 13.4769C13.7831 13.3479 13.5392 13.3479 13.4102 13.4769C13.3384 13.5343 13.2954 13.6204 13.2954 13.7208C13.2954 13.8212 13.3384 13.9072 13.4102 13.9646C13.4819 14.0363 13.5823 14.065 13.6683 14.065C13.7544 14.0793 13.8548 14.0507 13.9122 13.9646Z" fill="white"/>
<path fill-rule="evenodd" clip-rule="evenodd" d="M14.988 14.6815C14.988 14.5811 14.945 14.5094 14.8876 14.4377C14.7585 14.3086 14.529 14.3086 14.4 14.4377C14.3282 14.5094 14.2996 14.5811 14.2996 14.6815C14.2996 14.7819 14.3426 14.8536 14.4 14.9254C14.4573 14.9827 14.5434 15.0258 14.6438 15.0258C14.7442 15.0258 14.8159 14.9827 14.8876 14.9254C14.9593 14.868 14.988 14.7819 14.988 14.6815Z" fill="white"/>
<path fill-rule="evenodd" clip-rule="evenodd" d="M15.8494 15.9009C15.9211 15.8292 15.9498 15.7575 15.9498 15.6571C15.9498 15.5567 15.9068 15.4849 15.8494 15.4132C15.7203 15.2841 15.4908 15.2841 15.3618 15.4132C15.29 15.4849 15.2614 15.5567 15.2614 15.6571C15.2614 15.7575 15.3044 15.8292 15.3618 15.9009C15.4191 15.9583 15.5052 16.0013 15.6056 16.0013C15.706 16.0013 15.792 15.9583 15.8494 15.9009Z" fill="white"/>
<path fill-rule="evenodd" clip-rule="evenodd" d="M16.8105 16.8044C16.8822 16.7471 16.9252 16.661 16.9252 16.5606C16.9252 16.4602 16.8822 16.3885 16.8105 16.3168C16.667 16.1877 16.4376 16.1877 16.3085 16.3168C16.2368 16.3885 16.1937 16.4602 16.1937 16.5606C16.1937 16.661 16.2368 16.7327 16.3085 16.8044C16.3802 16.8762 16.4806 16.9049 16.5666 16.9049C16.6384 16.9192 16.7388 16.8905 16.8105 16.8044Z" fill="white"/>
<path fill-rule="evenodd" clip-rule="evenodd" d="M17.7857 17.7654C17.8431 17.7081 17.8861 17.622 17.8861 17.5216C17.8861 17.4212 17.8431 17.3495 17.7857 17.2778C17.6566 17.1487 17.4271 17.1487 17.298 17.2778C17.2407 17.3495 17.1976 17.4212 17.1976 17.5216C17.1976 17.622 17.2407 17.6937 17.298 17.7654C17.3697 17.8372 17.4415 17.8658 17.5419 17.8658C17.6136 17.8802 17.714 17.8372 17.7857 17.7654Z" fill="white"/>
<path fill-rule="evenodd" clip-rule="evenodd" d="M18.7468 18.7407C18.8041 18.6834 18.8472 18.5973 18.8472 18.4969C18.8472 18.3965 18.8041 18.3104 18.7468 18.2531C18.6177 18.124 18.3882 18.124 18.2591 18.2531C18.2017 18.3104 18.1587 18.3965 18.1587 18.4969C18.1587 18.5973 18.2017 18.669 18.2591 18.7407C18.3308 18.8124 18.4025 18.8411 18.5029 18.8411C18.6033 18.8411 18.675 18.7981 18.7468 18.7407Z" fill="white"/>
<path fill-rule="evenodd" clip-rule="evenodd" d="M19.6502 19.7017C19.7219 19.6444 19.7506 19.5583 19.7506 19.4579C19.7506 19.3575 19.7076 19.2858 19.6502 19.2141C19.5211 19.085 19.2916 19.085 19.1625 19.2141C19.1052 19.2858 19.0621 19.3575 19.0621 19.4579C19.0621 19.5583 19.1052 19.6444 19.1625 19.7017C19.2343 19.7734 19.306 19.8021 19.4064 19.8021C19.4924 19.8021 19.5928 19.7734 19.6502 19.7017Z" fill="white"/>
<path fill-rule="evenodd" clip-rule="evenodd" d="M20.6678 20.6625C20.7395 20.6052 20.7682 20.5191 20.7682 20.4187C20.7682 20.3183 20.7251 20.2466 20.6678 20.1749C20.5387 20.0458 20.3092 20.0458 20.1801 20.1749C20.1084 20.2466 20.0797 20.3183 20.0797 20.4187C20.0797 20.5191 20.1227 20.6052 20.1801 20.6625C20.2375 20.7199 20.3235 20.7629 20.4239 20.7629C20.5243 20.7629 20.6104 20.7343 20.6678 20.6625Z" fill="white"/>
<path fill-rule="evenodd" clip-rule="evenodd" d="M21.6286 21.6237C21.7003 21.5519 21.7433 21.4802 21.7433 21.3798C21.7433 21.2794 21.7003 21.2077 21.6286 21.136C21.4852 21.0069 21.2557 21.0069 21.1266 21.136C21.0549 21.2077 21.0118 21.2794 21.0118 21.3798C21.0118 21.4802 21.0549 21.5519 21.1266 21.6237C21.1983 21.681 21.2987 21.7241 21.3848 21.7241C21.4565 21.7384 21.5425 21.6954 21.6286 21.6237Z" fill="white"/>
<path fill-rule="evenodd" clip-rule="evenodd" d="M12.3499 10.3787C13.3252 9.73328 14.4009 9.43208 15.5914 9.41773C16.7532 9.41773 17.8289 9.73328 18.8329 10.3787L20.8983 8.31332C19.2776 7.07982 17.5277 6.46307 15.5914 6.46307C13.6551 6.46307 11.8766 7.07982 10.2988 8.31332L12.3499 10.3787Z" fill="white"/>
<path fill-rule="evenodd" clip-rule="evenodd" d="M10.2845 18.8554C9.62476 17.8514 9.30921 16.79 9.30921 15.6425C9.30921 14.4808 9.62476 13.405 10.2845 12.4297L8.23349 10.3787C7.02868 11.9564 6.42627 13.7062 6.42627 15.6569C6.42627 17.5789 7.02868 19.343 8.24783 20.9495L10.2845 18.8554Z" fill="white"/>
<path fill-rule="evenodd" clip-rule="evenodd" d="M18.8177 20.9066C17.8423 21.5664 16.7666 21.9106 15.6048 21.925C14.4144 21.925 13.3243 21.6094 12.349 20.921L10.2836 22.972C11.8756 24.2199 13.6542 24.8366 15.6048 24.8223C17.5411 24.8079 19.291 24.1768 20.8687 22.972L18.8177 20.9066Z" fill="white"/>
<path fill-rule="evenodd" clip-rule="evenodd" d="M20.8409 12.401C21.5007 13.405 21.845 14.4951 21.8163 15.6712C21.8019 16.8187 21.472 17.8657 20.8409 18.8267L22.9063 20.8777C24.1255 19.3 24.7566 17.5502 24.7566 15.6282C24.7709 13.6776 24.1542 11.899 22.9063 10.3069L20.8409 12.401Z" fill="white"/>
<path fill-rule="evenodd" clip-rule="evenodd" d="M22.9915 21.5521C23.7804 21.5521 24.4401 22.1975 24.4401 23.0007C24.4401 23.7896 23.7947 24.4494 22.9915 24.4494C22.2026 24.4494 21.5428 23.8039 21.5428 23.0007C21.5428 22.1975 22.1883 21.5521 22.9915 21.5521Z" fill="white"/>
<path fill-rule="evenodd" clip-rule="evenodd" d="M8.21909 21.5521C9.00796 21.5521 9.65339 22.1975 9.65339 23.0007C9.65339 23.7896 9.00796 24.4494 8.21909 24.4494C7.43023 24.4494 6.78479 23.8039 6.78479 23.0007C6.78479 22.1975 7.43023 21.5521 8.21909 21.5521Z" fill="white"/>
<path fill-rule="evenodd" clip-rule="evenodd" d="M23.02 6.77875C23.8089 6.77875 24.4543 7.42418 24.4543 8.22739C24.4543 9.0306 23.8089 9.67603 23.02 9.67603C22.2311 9.67603 21.5857 9.0306 21.5857 8.22739C21.5857 7.42418 22.2311 6.77875 23.02 6.77875Z" fill="white"/>
<path fill-rule="evenodd" clip-rule="evenodd" d="M8.18937 6.77875C8.97823 6.77875 9.63801 7.42418 9.63801 8.21305C9.63801 9.00191 8.99257 9.64735 8.18937 9.64735C7.4005 9.64735 6.74072 9.00191 6.74072 8.21305C6.74072 7.42418 7.38616 6.77875 8.18937 6.77875Z" fill="white"/>
</g>
<defs>
<clipPath id="clip0_76_805">
<rect width="18.316" height="18.359" fill="white" transform="translate(6.42627 6.46307)"/>
</clipPath>
</defs>
</svg>
