<svg width="31" height="31" viewBox="0 0 31 31" fill="none" xmlns="http://www.w3.org/2000/svg">
<rect x="0.262573" y="0.506958" width="30.0176" height="30.0176" rx="15.0088" fill="#EDEFF0"/>
<g clip-path="url(#clip0_76_1097)">
<path d="M15.5466 19.6662C15.4831 19.6878 15.4469 19.6326 15.4037 19.6072C13.2874 18.3581 11.1734 17.1082 9.06166 15.8574C9.04121 15.8471 9.01998 15.8384 8.99817 15.8314V15.8034L9.03563 15.7818C9.08882 15.7679 9.14118 15.7509 9.19245 15.7311L14.1796 13.4619C14.6241 13.2594 15.0685 13.06 15.513 12.8594H15.5447C15.5447 12.9229 15.5447 12.9794 15.5447 13.0397C15.5464 15.2487 15.547 17.4576 15.5466 19.6662Z" fill="#393939"/>
<path d="M15.5498 12.861H15.5181C15.5181 12.7975 15.5244 12.734 15.5244 12.6673C15.5244 10.1861 15.5244 7.7047 15.5244 5.22306C15.5171 5.15933 15.5214 5.0948 15.5371 5.03259H15.5504C15.8114 5.41798 16.0387 5.82432 16.2787 6.22241C18.18 9.3762 20.0803 12.5296 21.9795 15.6825C21.9979 15.7136 22.0125 15.746 22.029 15.7803C21.9753 15.7688 21.9224 15.7533 21.8709 15.734C21.5224 15.5765 21.1726 15.4165 20.8272 15.2559C20.2862 15.0083 19.7451 14.7611 19.2037 14.5143L16.5955 13.3327C16.2482 13.1727 15.899 13.0172 15.5498 12.861Z" fill="#343434"/>
<path d="M15.5388 5.02918C15.5232 5.09138 15.5189 5.15592 15.5262 5.21965C15.5262 7.70087 15.5262 10.1823 15.5262 12.6639C15.5262 12.7274 15.5223 12.7909 15.5198 12.8576C15.0754 13.0582 14.6309 13.2576 14.1865 13.4601L9.1993 15.7293C9.14803 15.7491 9.09567 15.7661 9.04248 15.7801C9.1866 15.4804 9.3739 15.2086 9.54469 14.9217C11.5235 11.6324 13.5038 8.34382 15.4855 5.05585C15.4986 5.03763 15.5128 5.02024 15.5281 5.00378L15.5388 5.02918Z" fill="#8C8C8C"/>
<path d="M15.5499 12.861C15.8991 13.0171 16.2483 13.1727 16.5969 13.3302L19.2051 14.5117C19.7469 14.7581 20.288 15.0053 20.8285 15.2533C21.1765 15.4127 21.5269 15.5739 21.8723 15.7314C21.9238 15.7507 21.9766 15.7662 22.0304 15.7777C22.0939 15.8571 22 15.8603 21.9714 15.8774C21.4298 16.2012 20.8857 16.5206 20.3428 16.8418C18.7848 17.7637 17.2271 18.6854 15.6699 19.6069C15.6306 19.6297 15.588 19.6469 15.5468 19.6665C15.5468 17.4583 15.5468 15.2499 15.5468 13.0413C15.5474 12.981 15.5493 12.9213 15.5499 12.861Z" fill="#141414"/>
<path d="M15.5242 20.9207L19.6035 18.5163C20.3823 18.0566 21.1607 17.5965 21.9387 17.136L22.0092 17.0973C22.0161 17.1608 21.9723 17.1944 21.9457 17.2313C20.1679 19.7374 18.3902 22.2428 16.6125 24.7473C16.276 25.2222 15.9401 25.6996 15.6004 26.1707C15.5826 26.1955 15.5553 26.3117 15.5007 26.1885C15.5439 26.1517 15.5249 26.1022 15.5249 26.0615C15.5253 24.3473 15.5251 22.6337 15.5242 20.9207Z" fill="#3D3D3C"/>
<path d="M15.524 20.921C15.524 22.634 15.524 24.3465 15.524 26.0587C15.524 26.1025 15.543 26.152 15.4999 26.1856C15.4091 26.131 15.3697 26.0333 15.3094 25.9526C13.2481 23.049 11.1878 20.1449 9.12858 17.2404C9.10255 17.2036 9.07842 17.1642 9.05176 17.1236C9.10509 17.0925 9.13366 17.135 9.16477 17.1534C11.2494 18.3843 13.3336 19.6163 15.4173 20.8492C15.4561 20.8734 15.4891 20.8981 15.524 20.921Z" fill="#8C8C8C"/>
<path d="M15.5393 5.02864L15.5244 5.00564C15.5518 4.98824 15.548 5.01372 15.5524 5.02677L15.5393 5.02864Z" fill="#393939"/>
</g>
<defs>
<clipPath id="clip0_76_1097">
<rect width="13.0511" height="21.2446" fill="white" transform="translate(9 5)"/>
</clipPath>
</defs>
</svg>
