<svg width="31" height="31" viewBox="0 0 31 31" fill="none" xmlns="http://www.w3.org/2000/svg">
<rect y="0.548279" width="30.0176" height="30.0176" rx="15.0088" fill="#16FF99"/>
<path d="M22.8761 12.532H18.1765V17.2316H22.8761V12.532Z" fill="white"/>
<path d="M13.478 18.9982C13.478 19.9648 12.6781 20.7647 11.7115 20.7647C10.7449 20.7647 9.94496 19.9648 9.94496 18.9982C9.94496 18.0316 10.7449 17.2317 11.7115 17.2317H13.478V12.5321H11.7115C8.14512 12.5321 5.24536 15.4319 5.24536 18.9982C5.24536 22.5646 8.14512 25.4643 11.7115 25.4643C15.2778 25.4643 18.1776 22.5646 18.1776 18.9982V17.2317H13.478V18.9982Z" fill="white"/>
<path d="M19.9441 10.1654H25.2437V5.46582H19.9441C16.3778 5.46582 13.478 8.36558 13.478 11.9319V12.5319H18.1776V11.9319C18.1776 10.9654 18.9776 10.1654 19.9441 10.1654Z" fill="white"/>
</svg>
