<svg width="31" height="31" viewBox="0 0 31 31" fill="none" xmlns="http://www.w3.org/2000/svg">
<rect x="0.525024" y="0.534485" width="30.0176" height="30.0176" rx="15.0088" fill="#ABEBF4"/>
<g clip-path="url(#clip0_76_940)">
<path d="M11.0824 6.43671C16.1294 6.43516 21.1768 6.43516 26.2245 6.43671C26.2261 8.06811 26.2261 9.69924 26.2245 11.3301C21.1773 11.3316 16.1299 11.3316 11.0824 11.3301C11.0808 9.69867 11.0808 8.06755 11.0824 6.43671Z" fill="white"/>
<path d="M5.12059 13.1709C6.7489 13.1625 8.37749 13.1625 10.0064 13.1709C10.0148 14.7993 10.0148 16.4278 10.0064 18.0567C8.37756 18.0651 6.74897 18.0652 5.12059 18.0571C5.11215 16.4285 5.11215 14.7998 5.12059 13.1709Z" fill="white"/>
<path d="M11.0864 13.1711C14.7293 13.1633 18.3719 13.1633 22.0143 13.1711C22.022 14.7994 22.022 16.428 22.0143 18.0569C18.3715 18.0645 14.7288 18.0645 11.0864 18.0569C11.0788 16.4285 11.0788 14.7999 11.0864 13.1711Z" fill="white"/>
<path d="M11.0902 19.9069C12.7157 19.8893 14.341 19.8893 15.966 19.9069C15.9829 21.5314 15.9831 23.1567 15.9667 24.7828C14.3412 24.7988 12.7159 24.7985 11.091 24.7819C11.0741 23.1576 11.0738 21.5326 11.0902 19.9069Z" fill="white"/>
</g>
<defs>
<clipPath id="clip0_76_940">
<rect width="21.1115" height="18.359" fill="white" transform="translate(5.11487 6.43555)"/>
</clipPath>
</defs>
</svg>
