<svg width="31" height="31" viewBox="0 0 31 31" fill="none" xmlns="http://www.w3.org/2000/svg">
<rect x="0.575195" y="0.562012" width="30.0176" height="30.0176" rx="15.0088" fill="#38A2FF"/>
<path fill-rule="evenodd" clip-rule="evenodd" d="M24.3157 6.97774C23.2646 5.92663 21.5377 5.92663 20.4866 6.97774C19.8672 7.59714 19.5857 8.47931 19.7171 9.32395C19.7546 9.60549 19.7358 9.90581 19.6045 10.1686C19.4355 10.5064 19.154 10.7504 18.8161 10.8818C18.4783 11.0132 18.0841 11.0132 17.7463 10.8443C15.7942 9.94335 13.448 10.3563 11.9089 11.8954C10.3698 13.4157 9.95684 15.762 10.8578 17.7328C11.0267 18.0894 11.0267 18.4836 10.8953 18.8214C10.7827 19.1405 10.5387 19.422 10.1821 19.591C9.99438 19.6848 9.80668 19.7224 9.60021 19.7224C9.50636 19.7224 9.41252 19.7036 9.31867 19.6848H9.28113C8.43649 19.5722 7.61062 19.835 6.99122 20.4544C6.48444 20.9612 6.2029 21.6556 6.2029 22.3689C6.2029 23.1009 6.48444 23.7766 6.99122 24.2834C8.04233 25.3345 9.76914 25.3345 10.8202 24.2834C11.4209 23.664 11.7212 22.7818 11.571 21.9184V21.787C11.5523 21.543 11.6086 21.3178 11.7024 21.0925C11.8526 20.7547 12.1341 20.5107 12.472 20.3793C12.8098 20.2479 13.1852 20.2479 13.5418 20.4168C15.4939 21.3178 17.8401 20.9048 19.3792 19.3657C20.9183 17.8454 21.3313 15.4804 20.4303 13.5284C20.2802 13.1905 20.2614 12.8151 20.3928 12.4773C20.5242 12.1394 20.7682 11.8579 21.1248 11.6889C21.3876 11.5763 21.6504 11.5388 21.8944 11.5763H22.0257C22.8704 11.6889 23.6963 11.4262 24.3157 10.8068C25.3668 9.75565 25.3668 8.02884 24.3157 6.97774ZM17.8026 13.5471C18.9663 14.7296 18.9663 16.6254 17.8026 17.7891C16.6388 18.9528 14.7431 18.9528 13.5606 17.7891C12.3969 16.6066 12.3969 14.7108 13.5606 13.5471C14.7431 12.3834 16.6388 12.3834 17.8026 13.5471ZM25.3104 6.02048C26.9059 7.63468 26.9059 10.2249 25.3104 11.8203C24.7098 12.4022 23.9778 12.7776 23.227 12.9653C24.2969 15.8558 23.6024 19.1593 21.3876 21.3741C19.8672 22.8944 17.8213 23.7015 15.7379 23.7015C14.7994 23.7015 13.8609 23.5326 12.96 23.1948C12.8098 23.9643 12.4344 24.7151 11.8338 25.3157C10.2196 26.9111 7.62939 26.9111 6.03397 25.3157C4.43855 23.7015 4.43855 21.1113 6.03397 19.5159C6.6346 18.9153 7.36662 18.5399 8.13618 18.3897C7.02876 15.4804 7.72324 12.1394 9.93807 9.92458C12.1529 7.70975 15.4751 7.01528 18.3844 8.10392C18.5534 7.35313 18.91 6.62111 19.5106 6.02048C21.1248 4.42506 23.715 4.42506 25.3104 6.02048Z" fill="white"/>
</svg>
