<svg width="31" height="31" viewBox="0 0 31 31" fill="none" xmlns="http://www.w3.org/2000/svg">
<rect x="0.906616" y="0.575806" width="30.0176" height="30.0176" rx="15.0088" fill="#FF564F"/>
<g clip-path="url(#clip0_76_741)">
<path opacity="0.2" d="M9.6652 21.433L10.6451 24.368L17.3719 15.5716L10.6451 6.77509L9.61743 9.64648L14.0857 15.57L9.6652 21.433Z" fill="white"/>
<path d="M24.0039 24.3664H20.8117L14.0834 15.57L20.8117 6.77509H24.0039L17.3703 15.57L24.0039 24.3664Z" fill="#F08179"/>
<path d="M8.08484 6.77509H10.6434V24.3664H8.08484V6.77509Z" fill="white"/>
<path d="M24.0068 24.3664H20.8146L14.0863 15.57L20.8146 6.77509H24.0068L17.3732 15.57L24.0068 24.3664Z" fill="white"/>
<path d="M24.0068 24.3664H20.8146L14.0863 15.57L20.8146 6.77509H24.0068L17.3732 15.57L24.0068 24.3664Z" fill="white"/>
<path d="M24.0068 24.3664H20.8146L14.0863 15.57L20.8146 6.77509H24.0068L17.3732 15.57L24.0068 24.3664Z" fill="white"/>
<path d="M24.0068 24.3664H20.8146L14.0863 15.57L20.8146 6.77509H24.0068L17.3732 15.57L24.0068 24.3664Z" fill="white"/>
</g>
<defs>
<clipPath id="clip0_76_741">
<rect width="15.9212" height="17.5929" fill="white" transform="translate(8.08472 6.77509)"/>
</clipPath>
</defs>
</svg>
