<svg width="31" height="31" viewBox="0 0 31 31" fill="none" xmlns="http://www.w3.org/2000/svg">
<rect x="0.262573" y="0.534485" width="30.0176" height="30.0176" rx="15.0088" fill="#3E5C98"/>
<path fill-rule="evenodd" clip-rule="evenodd" d="M13.5697 22.0304L15.1082 16.8423L17.5055 16.1625L18.0064 14.445L15.6449 15.1606L18.1496 6.64493V6.50897C18.1477 6.45445 18.1351 6.40083 18.1126 6.35118C18.09 6.30153 18.0578 6.25682 18.0179 6.2196C17.9781 6.18238 17.9312 6.15339 17.8802 6.13428C17.8291 6.11517 17.7747 6.10632 17.7202 6.10823H14.5358C14.4152 6.10451 14.2969 6.14124 14.1996 6.21257C14.1023 6.28389 14.0318 6.38571 13.9991 6.50181L11.0293 16.5918L8.66781 17.3074L8.1311 18.9533L10.4926 18.2377L8.38157 25.4295H20.9762C21.097 25.4345 21.216 25.3983 21.3135 25.3268C21.411 25.2553 21.4814 25.1527 21.5129 25.036L22.2285 22.5671V22.4312C22.2267 22.3766 22.2141 22.323 22.1915 22.2734C22.1689 22.2237 22.1368 22.179 22.0969 22.1418C22.057 22.1046 22.0102 22.0756 21.9591 22.0565C21.908 22.0374 21.8537 22.0285 21.7991 22.0304H13.5697Z" fill="white"/>
</svg>
