<svg width="31" height="31" viewBox="0 0 31 31" fill="none" xmlns="http://www.w3.org/2000/svg">
<rect x="0.312622" y="0.562012" width="30.0176" height="30.0176" rx="15.0088" fill="#65C7B5"/>
<path d="M6.26086 21.167V12.4581L12.8653 17.4287V21.167H14.551V17.0778C14.5507 16.9258 14.5152 16.776 14.4472 16.6401C14.3793 16.5042 14.2807 16.3859 14.1593 16.2945L6.14984 10.2642C6.00334 10.1554 5.82954 10.0893 5.64775 10.0734C5.46597 10.0574 5.28331 10.0922 5.12009 10.1738C4.95687 10.2554 4.81947 10.3806 4.72317 10.5357C4.62687 10.6907 4.57544 10.8693 4.57458 11.0518V21.167H6.26086ZM24.5262 21.167V12.4581L17.9217 17.4287V21.167H16.236V17.0778C16.2364 16.9258 16.2719 16.776 16.3398 16.6401C16.4078 16.5042 16.5063 16.3859 16.6277 16.2945L24.6372 10.2667C24.7835 10.158 24.9571 10.0919 25.1387 10.0759C25.3203 10.0598 25.5027 10.0944 25.6659 10.1757C25.829 10.257 25.9664 10.3819 26.0629 10.5365C26.1594 10.6912 26.2112 10.8695 26.2125 11.0518V21.167H24.5262Z" fill="white"/>
</svg>
