<svg width="31" height="31" viewBox="0 0 31 31" fill="none" xmlns="http://www.w3.org/2000/svg">
<rect x="0.262573" y="0.548279" width="30.0176" height="30.0176" rx="15.0088" fill="#F26822"/>
<path fill-rule="evenodd" clip-rule="evenodd" d="M29.1096 15.7919C29.1096 16.6459 29.0309 17.4816 28.8804 18.2921C29.03 17.4816 29.1077 16.6459 29.1093 15.7917C29.1094 15.7238 29.109 15.6561 29.1081 15.5884C29.1091 15.6561 29.1096 15.7239 29.1096 15.7919ZM29.1081 15.5884C29.0387 10.8555 26.5529 6.70814 22.8293 4.32495C26.5569 6.70768 29.0466 10.8555 29.1081 15.5884ZM3.73893 8.95995C6.09589 4.91226 10.4861 2.18752 15.5061 2.18752V2.18933C18.2008 2.18933 20.7143 2.97303 22.8293 4.32495C20.7152 2.97189 18.2021 2.1875 15.5057 2.1875C10.4824 2.1875 6.09525 4.91006 3.73893 8.95995ZM2.05163 13.7654C1.9533 14.4265 1.90276 15.1031 1.90363 15.7914C1.90552 17.2928 2.14493 18.737 2.59426 20.0879H6.66443V8.64359L15.5061 17.4852L24.3474 8.64359V20.0881H28.4173C28.0921 21.0661 27.6589 21.9948 27.1318 22.86H21.3971V15.6587L17.5383 19.5175L15.5056 21.5502L13.4727 19.5175L9.61409 15.6587V22.8601H6.66404L3.8803 22.8606C5.087 24.8403 6.78598 26.4888 8.80684 27.6353C4.68367 25.2981 1.90173 20.8698 1.90173 15.7919C1.90173 15.1032 1.9529 14.4266 2.05163 13.7654ZM26.1449 24.2709C26.5024 23.8228 26.8322 23.3517 27.1318 22.86H27.1324C26.8327 23.3516 26.5026 23.8228 26.1449 24.2709ZM26.1449 24.2709C23.6523 27.3946 19.8129 29.3962 15.5057 29.3962C13.0702 29.3962 10.7843 28.7562 8.80684 27.6353C10.7848 28.7574 13.0711 29.3986 15.506 29.3986C19.8109 29.3986 23.6515 27.394 26.1449 24.2709ZM3.73893 8.95995C2.89381 10.4125 2.30993 12.0358 2.05163 13.7654C2.30881 12.0364 2.89287 10.4129 3.73893 8.95995ZM28.4173 20.0881H28.4184C28.6124 19.5058 28.767 18.9062 28.8804 18.2921C28.7663 18.9063 28.6109 19.5059 28.4173 20.0881Z" fill="white"/>
</svg>
