<svg width="31" height="31" viewBox="0 0 31 31" fill="none" xmlns="http://www.w3.org/2000/svg">
<rect x="0.787598" y="0.534485" width="30.0176" height="30.0176" rx="15.0088" fill="black"/>
<g clip-path="url(#clip0_76_936)">
<path d="M20.6509 8.86006L17.4422 13.6219C17.2203 13.9462 17.647 14.3387 17.9542 14.0656L21.1117 11.3178C21.197 11.2495 21.3165 11.3007 21.3165 11.4202V20.0051C21.3165 20.1246 21.1629 20.1758 21.0946 20.0905L11.5368 8.65525C11.2296 8.27976 10.7858 8.07495 10.2909 8.07495H9.94954C9.06203 8.07495 8.32812 8.80885 8.32812 9.71343V21.7972C8.32812 22.7018 9.06203 23.4357 9.96661 23.4357C10.5298 23.4357 11.0589 23.1456 11.3661 22.6506L14.5748 17.8888C14.7967 17.5645 14.37 17.1719 14.0628 17.445L10.9053 20.1758C10.82 20.2441 10.7005 20.1929 10.7005 20.0734V11.5055C10.7005 11.386 10.8541 11.3348 10.9224 11.4202L20.4802 22.8554C20.7874 23.2309 21.2482 23.4357 21.7261 23.4357H22.0675C22.9721 23.4357 23.706 22.7018 23.706 21.7972V9.71343C23.706 8.80885 22.9721 8.07495 22.0675 8.07495C21.4872 8.07495 20.9581 8.3651 20.6509 8.86006Z" fill="white"/>
</g>
<defs>
<clipPath id="clip0_76_936">
<rect width="15.3778" height="15.3608" fill="white" transform="translate(8.32812 8.07495)"/>
</clipPath>
</defs>
</svg>
