<svg width="31" height="31" viewBox="0 0 31 31" fill="none" xmlns="http://www.w3.org/2000/svg">
<rect x="0.431641" y="0.575806" width="30.0176" height="30.0176" rx="15.0088" fill="#ECECEC"/>
<path d="M24.8762 20.9534C24.836 21.0902 24.7007 21.1107 24.602 21.1685C23.2724 21.951 21.9376 22.724 20.6117 23.5132C20.3506 23.6682 20.14 23.6748 19.8738 23.5168C18.4535 22.6736 17.0215 21.8464 15.5968 21.0141C15.5462 20.9638 15.4914 20.9178 15.433 20.8766C14.7119 20.4525 13.9937 20.0239 13.2667 19.6114C12.509 19.1806 11.7835 18.695 10.9958 18.3184C10.9958 16.4919 10.9939 14.666 10.99 12.8405L20.1319 18.1926L20.2738 18.2474L24.8762 20.9534Z" fill="#3553C0"/>
<path d="M20.1324 18.19L10.9876 12.8357C10.3623 12.47 9.73988 12.0956 9.11237 11.7321C8.18209 11.1938 7.24815 10.6621 6.31567 10.1275C6.7245 9.76182 7.22768 9.54242 7.69136 9.26304C8.65967 8.68161 9.64334 8.12432 10.6168 7.54655C10.842 7.41271 11.0249 7.41124 11.2552 7.54655C12.6243 8.35835 14.0015 9.15553 15.3764 9.96002C15.4496 10.0024 15.5278 10.0332 15.6032 10.0726C15.6525 10.124 15.7066 10.1706 15.7648 10.2116C16.4844 10.6365 17.2026 11.0644 17.9281 11.4776C18.6851 11.9083 19.4135 12.3888 20.1953 12.7721L20.2641 12.9125C20.2641 14.6634 20.2641 16.4142 20.2641 18.1651L20.1324 18.19Z" fill="#64A6E2"/>
<path d="M6.31565 10.1293C7.24813 10.664 8.18207 11.1956 9.11235 11.7339C9.73985 12.0996 10.3622 12.4697 10.9876 12.8375C10.9876 14.664 10.9895 16.4899 10.9934 18.3154C10.8603 18.4324 10.9203 18.5889 10.9203 18.7271C10.9164 20.3693 10.9164 22.0109 10.9203 23.6521C10.5495 23.5548 10.254 23.3113 9.93073 23.1248C8.81322 22.4812 7.70596 21.8208 6.58991 21.175C6.40341 21.0675 6.30469 20.9512 6.30469 20.7201C6.312 17.2266 6.31418 13.7325 6.31126 10.2376C6.31092 10.2014 6.31239 10.1653 6.31565 10.1293Z" fill="#7DBAFE"/>
<path d="M20.262 18.1661C20.262 16.4152 20.262 14.6644 20.262 12.9135C20.262 11.0856 20.2644 9.25723 20.2693 7.42836C20.4039 7.41812 20.4931 7.51612 20.5947 7.57463C21.917 8.34474 23.2364 9.12217 24.5601 9.89156C24.7635 10.01 24.8944 10.1344 24.8936 10.3984C24.8863 13.8787 24.8841 17.3589 24.8871 20.8392C24.8847 20.8756 24.8799 20.9118 24.8724 20.9475L20.2729 18.2414C20.2686 18.218 20.2685 18.1924 20.262 18.1661Z" fill="#294396"/>
<path d="M10.9136 23.6523C10.9136 22.0111 10.9136 20.3695 10.9136 18.7274C10.9136 18.5891 10.8572 18.4348 10.9867 18.3156C11.7744 18.6923 12.4999 19.1779 13.2575 19.6086C13.9845 20.0211 14.7027 20.4497 15.4238 20.8739C15.4822 20.915 15.537 20.961 15.5876 21.0114L11.2397 23.5346C11.1432 23.5945 11.0532 23.6852 10.9136 23.6523Z" fill="#64A6E2"/>
<path d="M20.1952 12.7733C19.4112 12.3901 18.6828 11.9096 17.928 11.4788C17.2025 11.0656 16.4843 10.6378 15.7647 10.2129C15.7065 10.1718 15.6523 10.1253 15.603 10.0739C17.017 9.24845 18.4309 8.42348 19.8449 7.599C19.9582 7.53318 20.0585 7.43591 20.2011 7.43079L20.1952 12.7733Z" fill="#3553C0"/>
</svg>
