<svg width="31" height="31" viewBox="0 0 31 31" fill="none" xmlns="http://www.w3.org/2000/svg">
<rect x="0.525024" y="0.575806" width="29.8741" height="30.0176" rx="14.937" fill="url(#paint0_linear_76_760)"/>
<path fill-rule="evenodd" clip-rule="evenodd" d="M15.5538 23.9318C13.0845 23.9299 11.0957 23.3373 9.70587 22.2731C8.29941 21.196 7.55322 19.6677 7.55322 17.9382C7.55322 16.2719 8.29782 15.0703 9.14022 14.2581C9.80024 13.6216 10.5287 13.214 11.0359 12.9793C10.8964 12.553 10.7677 12.1232 10.65 11.6904C10.4788 11.0534 10.3106 10.3062 10.3106 9.75848C10.3106 9.11036 10.4521 8.45933 10.8332 7.95341C11.2358 7.41922 11.8419 7.13295 12.5709 7.13295C13.1408 7.13295 13.6245 7.34441 14.0035 7.70892C14.3654 8.05729 14.6062 8.52039 14.7727 9.00278C15.065 9.85073 15.179 10.916 15.2107 11.9791H15.9093C15.941 10.916 16.0549 9.85073 16.3473 9.00278C16.5138 8.52039 16.7546 8.05729 17.1164 7.70892C17.4955 7.34415 17.9792 7.13269 18.5491 7.13269C19.2781 7.13269 19.8842 7.41922 20.2867 7.95341C20.6679 8.45933 20.8093 9.11036 20.8093 9.75874C20.8093 10.3062 20.6412 11.0534 20.4699 11.6904C20.3523 12.1232 20.2236 12.553 20.084 12.9793C20.5912 13.214 21.3197 13.6216 21.9797 14.2581C22.8221 15.0703 23.5667 16.2719 23.5667 17.9382C23.5667 19.6677 22.8205 21.196 21.4141 22.2731C20.0245 23.3373 18.0355 23.9299 15.5662 23.9318H15.5538Z" fill="#633001"/>
<path d="M12.5714 7.74939C11.5036 7.74939 11.0119 8.55425 11.0119 9.66732C11.0119 10.552 11.5829 12.3238 11.8176 13.0137C11.8702 13.1688 11.7875 13.3388 11.6363 13.399C10.7804 13.74 8.25452 14.9882 8.25452 17.8471C8.25452 20.8585 10.8214 23.1291 15.5549 23.1328H15.5662C20.2997 23.1291 22.8666 20.8585 22.8666 17.8471C22.8666 14.9882 20.3407 13.7398 19.4848 13.399C19.4112 13.37 19.3515 13.3139 19.3178 13.2423C19.2841 13.1707 19.279 13.0889 19.3035 13.0137C19.538 12.3238 20.1092 10.552 20.1092 9.66732C20.1092 8.55425 19.6175 7.74939 18.5497 7.74939C17.0123 7.74939 16.6291 9.94909 16.6016 12.31C16.6013 12.3854 16.5714 12.4576 16.5182 12.511C16.4651 12.5645 16.3931 12.5948 16.3177 12.5955H14.8031C14.6472 12.5955 14.5211 12.4676 14.5192 12.31C14.492 9.94909 14.1088 7.74939 12.5714 7.74939Z" fill="#D1884F"/>
<path d="M15.5662 22.1687C12.0883 22.1687 8.26033 20.288 8.25452 17.8533V17.8647C8.25452 20.8788 10.8256 23.1504 15.5662 23.1504C20.3069 23.1504 22.8777 20.8788 22.8777 17.8647V17.8533C22.8719 20.2878 19.0442 22.1687 15.5662 22.1687Z" fill="#FEDC90"/>
<path d="M13.6337 17.1058C13.6337 17.9279 13.2491 18.3561 12.7747 18.3561C12.3005 18.3561 11.9159 17.9279 11.9159 17.1058C11.9159 16.2838 12.3005 15.8556 12.7749 15.8556C13.2491 15.8556 13.6337 16.2838 13.6337 17.1058ZM19.2162 17.1058C19.2162 17.9279 18.8317 18.3561 18.3572 18.3561C17.883 18.3561 17.4987 17.9279 17.4987 17.1058C17.4987 16.2838 17.883 15.8556 18.3575 15.8556C18.8317 15.8556 19.2165 16.2838 19.2165 17.1058H19.2162Z" fill="#633001"/>
<defs>
<linearGradient id="paint0_linear_76_760" x1="15.4621" y1="0.575806" x2="15.4621" y2="30.5934" gradientUnits="userSpaceOnUse">
<stop stop-color="white"/>
<stop offset="0.0001" stop-color="#50DDE8"/>
<stop offset="1" stop-color="#23C9D6"/>
</linearGradient>
</defs>
</svg>
