<svg width="31" height="31" viewBox="0 0 31 31" fill="none" xmlns="http://www.w3.org/2000/svg">
<rect x="0.40686" y="0.520752" width="30.0176" height="30.0176" rx="15.0088" fill="#E6007A"/>
<g clip-path="url(#clip0_76_1016)">
<path d="M15.4211 10.0134C17.282 10.0134 18.7906 9.13603 18.7906 8.05371C18.7906 6.97139 17.282 6.09399 15.4211 6.09399C13.5601 6.09399 12.0515 6.97139 12.0515 8.05371C12.0515 9.13603 13.5601 10.0134 15.4211 10.0134Z" fill="white"/>
<path d="M15.4211 24.7803C17.282 24.7803 18.7906 23.9029 18.7906 22.8206C18.7906 21.7382 17.282 20.8608 15.4211 20.8608C13.5601 20.8608 12.0515 21.7382 12.0515 22.8206C12.0515 23.9029 13.5601 24.7803 15.4211 24.7803Z" fill="white"/>
<path d="M10.7246 12.7264C11.6551 11.1148 11.649 9.36934 10.7111 8.82781C9.7732 8.28628 8.25856 9.15374 7.32809 10.7653C6.39761 12.3769 6.40365 14.1223 7.34157 14.6639C8.2795 15.2054 9.79414 14.3379 10.7246 12.7264Z" fill="white"/>
<path d="M23.5119 20.1083C24.4423 18.4968 24.4368 16.7516 23.4995 16.2105C22.5622 15.6693 21.0481 16.537 20.1176 18.1486C19.1872 19.7602 19.1927 21.5053 20.13 22.0465C21.0673 22.5877 22.5814 21.7199 23.5119 20.1083Z" fill="white"/>
<path d="M10.7123 22.0468C11.6503 21.5053 11.6563 19.7599 10.7258 18.1483C9.79536 16.5367 8.28072 15.6692 7.34279 16.2108C6.40487 16.7523 6.39883 18.4977 7.32931 20.1093C8.25978 21.7209 9.77442 22.5883 10.7123 22.0468Z" fill="white"/>
<path d="M23.4995 14.6647C24.4368 14.1235 24.4423 12.3784 23.5119 10.7668C22.5814 9.1552 21.0673 8.28745 20.13 8.82861C19.1927 9.36977 19.1872 11.1149 20.1176 12.7265C21.0481 14.3381 22.5622 15.2058 23.4995 14.6647Z" fill="white"/>
</g>
<defs>
<clipPath id="clip0_76_1016">
<rect width="17.5712" height="18.6869" fill="white" transform="translate(6.63574 6.09399)"/>
</clipPath>
</defs>
</svg>
