<svg width="31" height="31" viewBox="0 0 31 31" fill="none" xmlns="http://www.w3.org/2000/svg">
<rect x="0.194458" y="0.520752" width="30.0176" height="30.0176" rx="15.0088" fill="#8247E5"/>
<g clip-path="url(#clip0_76_1001)">
<path d="M20.2164 12.062C19.8518 11.8537 19.3831 11.8537 18.9665 12.062L16.0501 13.7806L14.0711 14.8742L11.2067 16.5928C10.8422 16.8012 10.3735 16.8012 9.95685 16.5928L7.71746 15.2388C7.35291 15.0305 7.09252 14.6139 7.09252 14.1451V11.5412C7.09252 11.1246 7.30083 10.7079 7.71746 10.4475L9.95685 9.14558C10.3214 8.93726 10.7901 8.93726 11.2067 9.14558L13.4461 10.4996C13.8107 10.7079 14.0711 11.1246 14.0711 11.5933V13.3119L16.0501 12.1661V10.3955C16.0501 9.97884 15.8418 9.56221 15.4251 9.30181L11.2588 6.85411C10.8943 6.6458 10.4256 6.6458 10.0089 6.85411L5.73847 9.35389C5.32184 9.56221 5.11353 9.97884 5.11353 10.3955V15.2909C5.11353 15.7075 5.32184 16.1241 5.73847 16.3845L9.95685 18.8322C10.3214 19.0405 10.7901 19.0405 11.2067 18.8322L14.0711 17.1657L16.0501 16.02L18.9144 14.3535C19.279 14.1451 19.7477 14.1451 20.1643 14.3535L22.4037 15.6554C22.7682 15.8637 23.0286 16.2804 23.0286 16.7491V19.353C23.0286 19.7696 22.8203 20.1863 22.4037 20.4467L20.2164 21.7486C19.8518 21.957 19.3831 21.957 18.9665 21.7486L16.7271 20.4467C16.3625 20.2384 16.1021 19.8217 16.1021 19.353V17.6865L14.1232 18.8322V20.5508C14.1232 20.9675 14.3315 21.3841 14.7481 21.6445L18.9665 24.0922C19.331 24.3005 19.7997 24.3005 20.2164 24.0922L24.4348 21.6445C24.7993 21.4362 25.0597 21.0195 25.0597 20.5508V15.6033C25.0597 15.1867 24.8514 14.7701 24.4348 14.5097L20.2164 12.062Z" fill="white"/>
</g>
<defs>
<clipPath id="clip0_76_1001">
<rect width="19.9983" height="17.4464" fill="white" transform="translate(5.11218 6.74976)"/>
</clipPath>
</defs>
</svg>
