<svg width="31" height="31" viewBox="0 0 31 31" fill="none" xmlns="http://www.w3.org/2000/svg">
<rect y="0.562012" width="30.0176" height="30.0176" rx="15.0088" fill="black"/>
<g clip-path="url(#clip0_76_846)">
<path d="M9.63928 6.39692L14.9685 12.6408L18.5456 10.5366C18.5456 10.5366 14.2298 4.7651 13.079 5.17306C11.9968 5.58531 9.63928 6.39692 9.63928 6.39692Z" fill="white"/>
<path d="M18.6785 10.5369C18.6785 10.5369 19.4901 9.11116 19.8937 7.2088C19.8937 7.2088 23.9432 8.83633 22.3887 12.9116L18.6785 10.5369Z" fill="white"/>
<path d="M22.3885 12.9158L22.7278 17.1928L24.278 16.991C24.278 16.991 24.6817 16.8536 24.6173 16.1107C24.5486 15.2948 24.4154 13.5985 24.4154 13.5985C24.4154 13.5985 24.4841 13.1906 23.5394 13.0575C22.3885 12.847 22.3885 12.9158 22.3885 12.9158Z" fill="white"/>
<path d="M22.7239 17.1929L19.6191 19.705L21.0362 22.4877C21.0362 22.4877 21.3755 23.5741 22.3846 22.3503C23.3294 21.1264 23.733 20.9246 23.6643 20.1774C23.6042 19.4302 23.3981 17.6652 22.7239 17.1929Z" fill="white"/>
<path d="M19.5551 19.7006L15.3037 17.7983L11.5935 25.3347C11.5935 25.3347 11.323 25.8758 12.2677 25.9445C13.2124 26.0819 14.7627 26.4212 15.5743 25.6053C16.3859 24.8623 19.5551 19.7006 19.5551 19.7006Z" fill="white"/>
<path d="M15.303 17.7343L14.8994 12.71L5.72254 13.3241C5.72254 13.3241 5.18146 13.3928 5.25017 14.4106C5.31888 15.7675 5.452 17.2619 5.452 17.2619C5.452 17.2619 5.38329 17.8717 6.59857 17.9404C7.81385 18.0048 15.1699 18.0048 15.303 17.7343Z" fill="white"/>
</g>
<defs>
<clipPath id="clip0_76_846">
<rect width="19.38" height="20.9818" fill="white" transform="translate(5.24536 5.15173)"/>
</clipPath>
</defs>
</svg>
