<svg width="31" height="31" viewBox="0 0 31 31" fill="none" xmlns="http://www.w3.org/2000/svg">
<rect x="0.719482" y="0.520752" width="30.0176" height="30.0176" rx="15.0088" fill="#FF0F0F"/>
<path d="M21.482 16.1601C21.4722 16.2126 21.318 16.37 21.1639 16.4848C20.7114 16.816 19.9014 17.1242 19.0782 17.2718C18.6093 17.3571 18.1403 17.3702 17.9993 17.3013C17.9075 17.2554 17.8944 17.2193 17.9272 17.1013C17.9961 16.8553 18.2191 16.5864 18.5667 16.3339C18.7438 16.206 19.4619 15.7699 19.7964 15.5862C20.3474 15.2845 20.7934 15.1041 21.0951 15.0615C21.1902 15.0484 21.3049 15.0451 21.341 15.0615C21.4 15.0845 21.4656 15.2583 21.4919 15.4682C21.505 15.5797 21.4984 16.0716 21.482 16.1601Z" fill="black"/>
<path d="M13.7564 17.2453C13.7367 17.2847 13.6383 17.3273 13.5268 17.3437C13.4153 17.3601 13.0743 17.3503 12.8808 17.3273C12.1856 17.2355 11.4477 17.0223 10.9099 16.76C10.6082 16.6124 10.3918 16.4648 10.2311 16.3042L10.1392 16.2091L10.1294 16.0844C10.113 15.868 10.1163 15.5269 10.1425 15.4056C10.1589 15.3039 10.195 15.2056 10.2442 15.117C10.2704 15.0842 10.2704 15.0842 10.3885 15.0842C10.5328 15.0842 10.6541 15.1072 10.8509 15.1695C11.2542 15.2941 11.8544 15.5958 12.5856 16.0352C13.1891 16.396 13.4153 16.5731 13.5891 16.8157C13.7072 16.9666 13.7859 17.1797 13.7564 17.2453Z" fill="black"/>
<path d="M18.3994 21.8105C18.3994 21.8204 18.3601 21.9778 18.3109 22.1647C18.2617 22.3516 18.2224 22.5025 18.2224 22.509C18.1863 22.5123 18.1535 22.5156 18.1174 22.5123H18.0125L17.8682 22.8534C17.7895 23.0403 17.7173 23.2141 17.7075 23.2403L17.6878 23.2862L17.619 23.1747L17.5501 23.0632V22.1549L17.5239 22.1614C17.4681 22.1745 17.0713 22.227 16.8975 22.2434C16.1793 22.3155 15.4579 22.2991 14.743 22.1975C14.6282 22.1811 14.5298 22.168 14.5265 22.1713C14.5232 22.1745 14.5265 22.3844 14.5331 22.6435L14.5429 23.1091L14.4872 23.1944C14.4576 23.2403 14.4281 23.2797 14.4281 23.283C14.4183 23.2928 14.3855 23.2403 14.3101 23.0895C14.2281 22.9321 14.1691 22.7648 14.1264 22.591L14.1035 22.4959L14.0018 22.5025L13.9002 22.5123L13.8739 22.391C13.8608 22.3254 13.8444 22.2237 13.8378 22.168L13.828 22.063L13.7427 21.9876C13.6936 21.945 13.6444 21.9023 13.6345 21.8958C13.6181 21.8827 13.6116 21.8597 13.6116 21.84V21.8007L14.0215 21.804L14.4314 21.8072L14.4445 21.8499L14.4576 21.8925L14.5987 21.8991C14.6774 21.9023 14.9266 21.9089 15.1496 21.9155L15.5595 21.9253L15.6645 21.7613L15.7727 21.5974H15.9104L15.9071 21.2563L15.9038 20.9153L15.7235 20.8366C15.143 20.5808 14.802 20.2889 14.6741 19.9347C14.6479 19.8626 14.6479 19.8363 14.6413 19.5084C14.638 19.1838 14.638 19.1542 14.661 19.0821C14.7069 18.9181 14.8348 18.7902 14.9987 18.7476C15.0545 18.7312 15.2021 18.7312 15.976 18.7312L16.8877 18.7345L16.9893 18.7837C17.1106 18.8427 17.1664 18.8853 17.2353 18.9772C17.314 19.0821 17.3369 19.1641 17.3369 19.3641C17.3369 19.6494 17.3173 19.8954 17.2877 19.9938C17.2451 20.1282 17.1795 20.2561 17.0975 20.3709C16.9336 20.5808 16.6351 20.7906 16.363 20.8857L16.2843 20.9153L16.2875 21.2596L16.2908 21.6039L16.363 21.6105L16.4351 21.617L16.5335 21.7646L16.6286 21.9122H17.068C17.3107 21.9122 17.5238 21.9155 17.5435 21.9187C17.5763 21.9253 17.5829 21.922 17.6157 21.8663L17.655 21.8072H18.0322C18.3142 21.7941 18.3994 21.8007 18.3994 21.8105Z" fill="black"/>
<path d="M16.669 22.7513C16.6067 22.7874 16.5641 22.8037 16.5542 22.7972C16.5444 22.7939 16.4985 22.7546 16.4493 22.7185L16.3607 22.6463L16.2689 22.7447C16.0689 22.9612 16.0623 22.971 16.0033 22.9743C15.9115 22.9841 15.8918 22.9677 15.7803 22.8005C15.7213 22.7152 15.6754 22.6431 15.6754 22.6431C15.6754 22.6431 15.6327 22.6365 15.5835 22.6332L15.4917 22.6234L15.4491 22.7119L15.4064 22.8005L15.331 22.7775C15.272 22.7578 15.213 22.7349 15.1572 22.7086L15.0588 22.6595V22.4725L15.9311 22.4758L16.8035 22.4791L16.8067 22.5676C16.81 22.6726 16.8133 22.6693 16.669 22.7513Z" fill="black"/>
<path d="M24.8669 18.7505C24.8637 18.7374 24.8637 18.7144 24.8604 18.6784C24.0733 18.5931 21.827 18.5406 19.7413 20.2623C19.7413 20.2623 19.069 17.1797 15.9208 17.1797C12.7727 17.1797 11.6052 20.2623 11.6052 20.2623C9.8409 18.3635 7.47977 18.5013 6.62713 18.6259C6.62713 18.6456 6.62385 18.6685 6.62385 18.6882C6.59762 19.1637 6.61073 19.39 6.68944 19.6884C6.93539 20.623 7.69292 21.6527 8.88005 22.6628C10.8247 24.3156 13.4613 25.5093 15.4584 25.647C17.5408 25.788 20.6136 24.5714 22.6599 22.794C22.9813 22.5086 23.283 22.2069 23.565 21.8856C23.7683 21.6495 24.0701 21.2428 24.0471 21.2428C24.0405 21.2428 24.0471 21.2363 24.0602 21.2297C24.0701 21.2231 24.0799 21.2133 24.0733 21.2067C24.07 21.2035 24.0766 21.1936 24.0864 21.1903C24.0963 21.1871 24.1028 21.1805 24.0996 21.1739C24.0963 21.1674 24.0996 21.1608 24.1127 21.1576C24.1225 21.1543 24.1258 21.1444 24.1225 21.1379C24.1192 21.1313 24.1225 21.1248 24.1291 21.1248C24.1356 21.1248 24.1422 21.1149 24.1422 21.1084C24.1422 21.1018 24.1488 21.092 24.1553 21.092C24.1619 21.092 24.1684 21.0854 24.1684 21.0788C24.1783 21.0526 24.1947 21.0264 24.2111 21.0034C24.2603 20.928 24.457 20.5771 24.4832 20.5181C24.6702 20.095 24.7882 19.7179 24.844 19.3408C24.8637 19.1604 24.8801 18.8292 24.8669 18.7505ZM16.6685 22.7513C16.6062 22.7874 16.5636 22.8038 16.5538 22.7972C16.5439 22.794 16.498 22.7546 16.4488 22.7185L16.3603 22.6464L16.2684 22.7448C16.0684 22.9612 16.0618 22.971 16.0028 22.9743C15.911 22.9842 15.8913 22.9678 15.7798 22.8005C15.7208 22.7152 15.6749 22.6431 15.6749 22.6431C15.6749 22.6431 15.6323 22.6365 15.5831 22.6333L15.4912 22.6234L15.4486 22.712L15.406 22.8005L15.3306 22.7776C15.2715 22.7579 15.2125 22.7349 15.1567 22.7087L15.0584 22.6595V22.4726L15.9307 22.4759L16.803 22.4791L16.8063 22.5677C16.8095 22.6726 16.8128 22.6693 16.6685 22.7513ZM18.3082 22.161C18.259 22.348 18.2197 22.4988 18.2197 22.5054C18.1836 22.5086 18.1508 22.5119 18.1147 22.5086H18.0098L17.8688 22.853C17.7901 23.0399 17.7179 23.2137 17.7081 23.2399L17.6884 23.2859L17.6195 23.1744L17.5507 23.0629V22.1545L17.5244 22.161C17.4687 22.1742 17.0719 22.2266 16.8981 22.243C16.1799 22.3152 15.4584 22.2988 14.7435 22.1971C14.6288 22.1807 14.5304 22.1676 14.5271 22.1709C14.5238 22.1742 14.5271 22.384 14.5337 22.6431L14.5435 23.1088L14.4878 23.194C14.4582 23.2399 14.4287 23.2793 14.4287 23.2826C14.4189 23.2924 14.3861 23.2399 14.3107 23.0891C14.2287 22.9317 14.1697 22.7644 14.127 22.5906L14.1041 22.4955L14.0024 22.5021L13.9008 22.5119L13.8745 22.3906C13.8614 22.325 13.845 22.2233 13.8384 22.1676L13.8286 22.0627L13.7433 21.9872C13.6942 21.9446 13.645 21.902 13.6351 21.8954C13.6187 21.8823 13.6122 21.8593 13.6122 21.8397V21.8003L14.0221 21.8036L14.432 21.8069L14.4451 21.8495L14.4582 21.8921L14.5993 21.8987C14.678 21.902 14.9272 21.9085 15.1502 21.9151L15.5601 21.9249L15.665 21.761L15.7733 21.597H15.911L15.9077 21.2559L15.9044 20.9149L15.7241 20.8362C15.1436 20.5804 14.8026 20.2885 14.6747 19.9344C14.6484 19.8622 14.6484 19.836 14.6419 19.508C14.6386 19.1834 14.6386 19.1539 14.6616 19.0817C14.7075 18.9177 14.8354 18.7899 14.9993 18.7472C15.0551 18.7308 15.2027 18.7308 15.9766 18.7308L16.8882 18.7341L16.9899 18.7833C17.1112 18.8423 17.167 18.885 17.2359 18.9768C17.3146 19.0817 17.3375 19.1637 17.3375 19.3637C17.3375 19.649 17.3178 19.895 17.2883 19.9934C17.2457 20.1278 17.1801 20.2557 17.0981 20.3705C16.9342 20.5804 16.6357 20.7903 16.3636 20.8854L16.2848 20.9149L16.2881 21.2592L16.2914 21.6035L16.3636 21.6101L16.4357 21.6167L16.5341 21.7642L16.6292 21.9118H17.0686C17.3113 21.9118 17.5244 21.9151 17.5441 21.9184C17.5769 21.9249 17.5835 21.9216 17.6163 21.8659L17.6556 21.8069H18.0327C18.3246 21.8069 18.4099 21.8101 18.4099 21.82C18.4 21.8167 18.3574 21.9774 18.3082 22.161Z" fill="#F5F5F5"/>
<path d="M24.8422 18.4158C24.8356 18.2683 24.8225 18.0617 24.8127 17.96C24.6717 16.4712 24.2913 15.2545 23.5698 13.9657C23.5403 13.9166 23.5141 13.8674 23.4977 13.828C23.4911 13.8182 23.4878 13.8083 23.4845 13.8018C23.5862 13.4968 24.0027 12.2211 24.3339 10.7618C24.7832 8.78107 25.0685 6.46584 24.1962 5.77062C24.1962 5.77062 22.6877 5.65912 20.6676 7.63986C20.1199 8.18751 19.6182 8.78107 19.1722 9.41399L19.0312 9.36808C18.2179 9.10245 17.3751 8.93848 16.5257 8.88273C16.2699 8.86306 15.3157 8.86306 15.0041 8.88273C14.0629 8.94504 13.3415 9.08605 12.5216 9.37136C12.4888 9.38447 12.4593 9.39431 12.4298 9.40415C11.9674 8.77451 11.4526 8.18423 10.8852 7.64313C8.78317 5.65256 7.21891 5.76734 7.21891 5.76734C6.29413 6.48552 6.60895 8.90569 7.08774 10.952C7.40256 12.3064 7.78952 13.4968 7.93381 13.9264C7.92398 13.9493 7.91086 13.9756 7.89774 13.9985C7.13365 15.5464 6.72045 17.0385 6.62207 18.6257C7.47798 18.5011 9.83584 18.3601 11.6034 20.2621C11.6034 20.2621 12.7709 17.1795 15.9191 17.1795C19.0672 17.1795 19.7395 20.2621 19.7395 20.2621C21.8252 18.5404 24.0715 18.5962 24.8586 18.6782C24.8553 18.6126 24.8488 18.5142 24.8422 18.4158ZM8.55361 12.6901C8.55361 12.6901 7.32713 9.62387 7.64195 7.87269C7.69442 7.57755 7.7928 7.31848 7.94693 7.12172C7.94693 7.12172 9.33738 7.25945 11.5805 9.75176C11.5805 9.75176 11.1541 9.95836 10.5835 10.3978C10.5835 10.3978 10.5803 10.4011 10.577 10.4011C9.95718 10.8766 9.16358 11.6308 8.55361 12.6901ZM13.758 17.2451C13.7383 17.2845 13.6399 17.3271 13.5284 17.3435C13.4169 17.3599 13.0759 17.35 12.8824 17.3271C12.1871 17.2353 11.4493 17.0221 10.9115 16.7598C10.6098 16.6122 10.3933 16.4646 10.2326 16.3039L10.1408 16.2088L10.131 16.0842C10.1146 15.8678 10.1179 15.5267 10.1441 15.4054C10.1605 15.3037 10.1966 15.2053 10.2458 15.1168C10.272 15.084 10.272 15.084 10.3901 15.084C10.5343 15.084 10.6557 15.107 10.8524 15.1693C11.2558 15.2939 11.8559 15.5956 12.5872 16.035C13.1906 16.3957 13.4169 16.5728 13.5907 16.8155C13.7088 16.9664 13.7875 17.1795 13.758 17.2451ZM21.4841 16.1596C21.4743 16.2121 21.3202 16.3695 21.166 16.4843C20.7135 16.8155 19.9035 17.1238 19.0804 17.2713C18.6114 17.3566 18.1425 17.3697 18.0015 17.3009C17.9096 17.2549 17.8965 17.2189 17.9293 17.1008C17.9982 16.8549 18.2212 16.586 18.5688 16.3334C18.7459 16.2055 19.464 15.7694 19.7985 15.5857C20.3495 15.284 20.7955 15.1037 21.0972 15.061C21.1923 15.0479 21.307 15.0447 21.3431 15.061C21.4021 15.084 21.4677 15.2578 21.494 15.4677C21.5071 15.5792 21.5005 16.0711 21.4841 16.1596ZM20.9398 10.3978L20.9332 10.3945C20.3823 9.95508 19.9691 9.74848 19.9691 9.74848C22.1367 7.25617 23.478 7.11844 23.478 7.11844C23.6256 7.31848 23.7207 7.57427 23.7731 7.86941C24.0781 9.62059 22.8943 12.6901 22.8943 12.6901C22.3991 11.8079 21.7334 11.0274 20.9398 10.3978Z" fill="#FFA409"/>
<path d="M23.7773 7.86975C23.5215 7.83695 22.3114 7.8304 20.9407 10.3981L20.9341 10.3949C20.3832 9.95542 19.97 9.74882 19.97 9.74882C22.1376 7.25651 23.4789 7.11877 23.4789 7.11877C23.6297 7.31882 23.7248 7.57461 23.7773 7.86975Z" fill="#FF9300"/>
<path d="M22.8985 12.6903C22.4 11.8049 21.7376 11.0277 20.9407 10.3981C22.3114 7.83032 23.5183 7.83688 23.7773 7.86967C24.0823 9.62413 22.8985 12.6903 22.8985 12.6903Z" fill="#FF8300"/>
<path d="M23.8265 7.87946C23.8101 7.87618 23.7937 7.87291 23.7773 7.86963L23.8265 7.87946Z" fill="#FF8300"/>
<path d="M11.5802 9.74882C11.5802 9.74882 11.1539 9.95542 10.5833 10.3949C10.5833 10.3949 10.58 10.3981 10.5767 10.3981C9.15677 7.82712 7.90734 7.83695 7.63843 7.86975C7.6909 7.57461 7.78928 7.31554 7.94341 7.11877C7.94669 7.11877 9.33713 7.25651 11.5802 9.74882Z" fill="#FF9300"/>
<path d="M10.5803 10.3981C9.95724 10.8768 9.16363 11.6278 8.55367 12.6903C8.55367 12.6903 7.32719 9.62413 7.64201 7.86967C7.90764 7.83688 9.16035 7.83032 10.5803 10.3981Z" fill="#FF8300"/>
<path d="M7.64101 7.86963C7.62472 7.87289 7.60516 7.87615 7.58887 7.87941L7.64101 7.86963Z" fill="#FF8300"/>
<path d="M19.578 14.3919C19.578 14.3919 18.5286 14.4575 18.6598 13.6377C18.791 12.8178 19.6108 12.7195 19.8404 12.7523C20.0699 12.7851 20.9881 13.113 20.8242 13.8017C20.6602 14.4903 20.4306 14.3591 20.2995 14.3919C20.1683 14.4247 19.578 14.3919 19.578 14.3919Z" fill="#F5F5F5"/>
<path d="M11.839 14.3922C11.839 14.3922 10.7896 14.4578 10.9208 13.6379C11.0519 12.8181 11.8718 12.7197 12.1013 12.7525C12.3309 12.7853 13.2491 13.1132 13.0851 13.8019C12.9212 14.4906 12.6916 14.3594 12.5605 14.3922C12.4293 14.425 11.839 14.3922 11.839 14.3922Z" fill="#F5F5F5"/>
</svg>
