<svg width="31" height="31" viewBox="0 0 31 31" fill="none" xmlns="http://www.w3.org/2000/svg">
<rect x="0.575195" y="0.534485" width="30.0176" height="30.0176" rx="15.0088" fill="#0E0E0E"/>
<path d="M23.236 9.0931L20.7025 10.3839L8.46855 16.6153C8.42719 16.2997 8.40637 15.9819 8.40624 15.6636C8.40791 14.3939 8.74127 13.1467 9.37328 12.0455C10.0053 10.9443 10.914 10.0273 12.0095 9.38532C13.105 8.74338 14.3491 8.39876 15.6187 8.3856C16.8884 8.37244 18.1394 8.6912 19.2479 9.31031L20.6981 8.57145L20.9144 8.46106C19.586 7.49688 18.0168 6.91877 16.3804 6.79061C14.744 6.66245 13.104 6.98924 11.6417 7.73486C10.1794 8.48048 8.95167 9.61589 8.09429 11.0156C7.23692 12.4153 6.78325 14.0249 6.78341 15.6663C6.78341 15.893 6.79202 16.1188 6.80923 16.3437C6.83333 16.6623 6.76269 16.9808 6.60619 17.2593C6.44969 17.5377 6.21433 17.7637 5.92972 17.9087L5.16504 18.2986V20.1173L7.41634 18.9698L8.14541 18.5977L8.8638 18.2318L21.761 11.6604L23.2102 10.9225L26.2057 9.39577V7.57799L23.236 9.0931Z" fill="white"/>
<path d="M26.2057 11.2155L9.59643 19.6724L8.14719 20.4121L5.16504 21.9317V23.7486L8.12672 22.2397L10.6602 20.9489L22.9066 14.7086C22.948 15.0262 22.9688 15.3462 22.969 15.6665C22.9682 16.9377 22.6349 18.1865 22.0023 19.2891C21.3697 20.3916 20.4596 21.3095 19.3626 21.9517C18.2656 22.5938 17.0196 22.9379 15.7485 22.9497C14.4774 22.9615 13.2253 22.6406 12.1166 22.0189L12.0276 22.0661L10.4555 22.8673C11.7836 23.8315 13.3524 24.4098 14.9886 24.5382C16.6247 24.6667 18.2646 24.3404 19.7269 23.5952C21.1892 22.8501 22.4171 21.7153 23.2748 20.316C24.1326 18.9168 24.5868 17.3077 24.5873 15.6665C24.5873 15.4377 24.5784 15.2089 24.5615 14.9828C24.5374 14.6644 24.608 14.346 24.7643 14.0676C24.9206 13.7891 25.1558 13.5631 25.4401 13.4179L26.2057 13.028V11.2155Z" fill="white"/>
</svg>
