<svg width="31" height="31" viewBox="0 0 31 31" fill="none" xmlns="http://www.w3.org/2000/svg">
<rect width="30.0176" height="30.0176" rx="15.0088" fill="#011829"/>
<g clip-path="url(#clip0_153_2425)">
<path fill-rule="evenodd" clip-rule="evenodd" d="M19.3935 13.3371L19.3932 13.3379C20.0706 14.1872 20.4753 15.2629 20.4753 16.4329C20.4753 17.6203 20.0584 18.7106 19.3628 19.5656L19.3029 19.6393L19.2871 19.5457C19.2736 19.4661 19.2577 19.3858 19.2392 19.3048C18.8911 17.7752 17.7569 16.4636 15.89 15.4016C14.6294 14.6864 13.9078 13.8253 13.7184 12.8468C13.596 12.2141 13.687 11.5786 13.8628 11.0343C14.0385 10.4901 14.2999 10.0342 14.522 9.75971L14.5222 9.75953L15.2484 8.87155C15.3757 8.71583 15.6141 8.71583 15.7414 8.87155L19.3935 13.3371ZM20.5421 12.45L20.5423 12.4496L15.6748 6.49795C15.5819 6.38431 15.4079 6.38431 15.3149 6.49795L10.4474 12.4497L10.4476 12.45L10.4317 12.4697C9.53602 13.5812 9 14.9937 9 16.5313C9 20.1124 11.9078 23.0155 15.4949 23.0155C19.082 23.0155 21.9898 20.1124 21.9898 16.5313C21.9898 14.9937 21.4537 13.5812 20.558 12.4697L20.5421 12.45ZM11.6121 13.3179L11.6123 13.3177L12.0476 12.7853L12.0608 12.8836C12.0712 12.9615 12.0839 13.0397 12.0989 13.1183C12.3806 14.5963 13.3869 15.8288 15.0693 16.7832C16.5318 17.6156 17.3833 18.5727 17.6286 19.6224C17.731 20.0605 17.7492 20.4915 17.7049 20.8684L17.7021 20.8917L17.681 20.902C17.021 21.2245 16.279 21.4054 15.4947 21.4054C12.7441 21.4054 10.5141 19.1792 10.5141 16.4329C10.5141 15.2538 10.9252 14.1703 11.6121 13.3179Z" fill="white"/>
</g>
<defs>
<clipPath id="clip0_153_2425">
<rect width="13" height="16.6028" fill="white" transform="translate(9 6.41272)"/>
</clipPath>
</defs>
</svg>
