<svg width="31" height="31" viewBox="0 0 31 31" fill="none" xmlns="http://www.w3.org/2000/svg">
<rect x="0.525024" y="0.506958" width="30.0176" height="30.0176" rx="15.0088" fill="#26A07B"/>
<path d="M15.5234 7.40524C17.7414 7.40524 19.9593 7.40524 22.1841 7.40524C22.382 7.40524 22.4366 7.45301 22.4366 7.65433C22.4366 8.62683 22.4366 9.59592 22.4366 10.565C22.4366 10.7527 22.382 10.7936 22.2046 10.7902C20.6657 10.7902 19.1336 10.7902 17.5844 10.7902C17.3831 10.7902 17.3421 10.8448 17.3455 11.0325C17.3592 11.6171 17.3592 12.2006 17.3455 12.783C17.3455 12.9672 17.3831 13.0253 17.581 13.0355C19.2014 13.0889 20.8122 13.3061 22.3889 13.6838C22.907 13.8042 23.4088 13.9863 23.8834 14.2264C24.0746 14.3208 24.2478 14.4478 24.3953 14.6017C24.4514 14.652 24.4964 14.7135 24.5271 14.7823C24.5579 14.8511 24.5738 14.9256 24.5738 15.001C24.5738 15.0763 24.5579 15.1508 24.5271 15.2196C24.4964 15.2884 24.4514 15.3499 24.3953 15.4002C24.1066 15.6811 23.7559 15.8903 23.3716 16.011C22.436 16.3433 21.4668 16.5721 20.4814 16.6934C19.5072 16.8425 18.525 16.9337 17.54 16.9664C17.3558 16.9664 17.3558 17.062 17.3558 17.1985C17.3558 19.4096 17.3558 21.6344 17.3558 23.8319C17.3558 24.0571 17.2978 24.1049 17.0794 24.1049C16.0147 24.1049 14.9467 24.1049 13.8821 24.1049C13.7012 24.1049 13.6671 24.0537 13.6671 23.8865C13.6671 21.6958 13.6671 19.5086 13.6671 17.3179C13.6671 16.9767 13.6671 16.9767 13.3259 16.9767C11.7323 16.9063 10.1494 16.68 8.59989 16.301C8.01461 16.1743 7.45352 15.9542 6.93811 15.6493C6.25566 15.2227 6.25566 14.7484 6.93811 14.3287C7.62601 13.9405 8.37673 13.676 9.15608 13.5473C10.5775 13.2501 12.0215 13.0732 13.4726 13.0184C13.6398 13.0184 13.6773 12.9638 13.6739 12.8069C13.6739 12.2131 13.6739 11.6228 13.6739 11.0325C13.6739 10.8414 13.6364 10.7766 13.4282 10.78C11.8927 10.78 10.3572 10.78 8.8251 10.78C8.61695 10.78 8.57941 10.7151 8.57941 10.5241C8.57941 9.5618 8.57941 8.59953 8.57941 7.63386C8.57941 7.4223 8.64766 7.3916 8.83533 7.3916C11.067 7.40866 13.2952 7.40524 15.5234 7.40524ZM15.6428 16.4C16.8071 16.4123 17.9712 16.3622 19.1301 16.2498C20.1668 16.1653 21.1943 15.9918 22.2012 15.7312C22.6067 15.6386 22.9949 15.4819 23.3511 15.2671C23.805 14.9702 23.7981 14.6563 23.3511 14.3594C23.1298 14.212 22.8885 14.0971 22.6345 14.0182C20.9515 13.5548 19.2171 13.3038 17.4718 13.2709C17.3114 13.2709 17.3387 13.3597 17.3387 13.4518C17.3387 14.1342 17.3387 14.8372 17.3387 15.5299C17.3387 15.6868 17.3012 15.7516 17.1374 15.7585C16.0352 15.7994 14.9331 15.8062 13.8309 15.7585C13.6876 15.7585 13.6535 15.7005 13.6535 15.564C13.6535 14.861 13.6535 14.1615 13.6535 13.462C13.6535 13.3051 13.6091 13.2709 13.4555 13.2744C12.698 13.3085 11.9405 13.3733 11.1864 13.462C10.228 13.5577 9.28156 13.7486 8.36103 14.0319C8.08885 14.1078 7.8291 14.2227 7.58985 14.3731C7.17697 14.6563 7.18038 14.9634 7.58985 15.2466C7.74948 15.3512 7.91995 15.4381 8.09828 15.506C8.70068 15.7276 9.32365 15.8888 9.95797 15.9871C11.837 16.2924 13.7394 16.4306 15.6428 16.4Z" fill="white"/>
</svg>
