<svg width="31" height="31" viewBox="0 0 31 31" fill="none" xmlns="http://www.w3.org/2000/svg">
<rect x="0.312622" y="0.548279" width="30.0176" height="30.0176" rx="15.0088" fill="#2C7DF7"/>
<g clip-path="url(#clip0_76_863)">
<path d="M17.2176 24.8084C15.9076 24.8084 14.9513 24.4928 14.349 23.8617C13.791 23.3275 13.4672 22.5941 13.4483 21.8218C13.4415 21.5872 13.4959 21.3549 13.6061 21.1476C13.7089 20.9686 13.8573 20.82 14.0363 20.7171C14.2444 20.6133 14.4737 20.5593 14.7061 20.5593C14.9386 20.5593 15.1679 20.6133 15.376 20.7171C15.5546 20.8196 15.7024 20.9683 15.8038 21.1476C15.9171 21.3539 15.9735 21.5866 15.9672 21.8218C15.9789 22.1028 15.8983 22.3799 15.7377 22.6107C15.6039 22.7992 15.4126 22.9391 15.1925 23.0097C15.4077 23.2837 15.7122 23.4736 16.053 23.5462C16.4343 23.6569 16.8292 23.7139 17.2263 23.7154C17.7519 23.72 18.2668 23.566 18.7036 23.2736C19.1568 22.9535 19.4948 22.4958 19.6675 21.9684C19.8863 21.3408 19.9931 20.6796 19.983 20.015C20.0007 19.3221 19.8838 18.6323 19.6388 17.984C19.4545 17.4654 19.1047 17.0218 18.6434 16.7218C18.2146 16.4504 17.7168 16.308 17.2093 16.3116C16.7671 16.3491 16.3408 16.4938 15.9672 16.7333L15.0461 17.1951V16.7333L19.1855 11.1803H13.4483V16.9427C13.4321 17.3585 13.5421 17.7695 13.7639 18.1217C13.8712 18.2751 14.0163 18.3983 14.1851 18.4792C14.354 18.5601 14.5409 18.596 14.7277 18.5835C15.0729 18.5765 15.4067 18.4589 15.68 18.2479C15.9898 18.0209 16.2593 17.7435 16.4775 17.4274C16.4971 17.372 16.5333 17.324 16.5812 17.2898C16.6197 17.2566 16.6687 17.2383 16.7195 17.2382C16.8192 17.2473 16.9135 17.2874 16.9892 17.3529C17.0851 17.46 17.1373 17.5992 17.1355 17.743C17.1244 17.8396 17.1071 17.9354 17.0838 18.0298C16.88 18.5231 16.5384 18.9473 16.0998 19.2515C15.6925 19.5271 15.2114 19.6732 14.7196 19.6707C13.4775 19.6707 12.617 19.426 12.1381 18.9364C11.8919 18.6658 11.7022 18.3488 11.58 18.004C11.4579 17.6592 11.4057 17.2935 11.4266 16.9283V11.1803H8.50854V10.1096H11.4402V7.66844L10.769 6.99677V6.44934H12.7167L13.4483 6.82805V10.1096L21.027 10.0866L21.7816 10.8439L17.1344 15.5136C17.4152 15.4007 17.7108 15.3292 18.0121 15.3013C18.6085 15.3274 19.1904 15.4935 19.7107 15.7862C20.3132 16.0726 20.8209 16.5257 21.1738 17.0918C21.4899 17.5711 21.7137 18.1052 21.8335 18.6667C21.9321 19.1096 21.985 19.5614 21.9913 20.0151C21.9944 20.8809 21.7981 21.7358 21.4176 22.5136C21.0568 23.2667 20.4495 23.874 19.6964 24.2348C18.9255 24.6147 18.0771 24.811 17.2176 24.8084Z" fill="white"/>
</g>
<defs>
<clipPath id="clip0_76_863">
<rect width="13.4826" height="18.359" fill="white" transform="translate(8.50854 6.44934)"/>
</clipPath>
</defs>
</svg>
