<svg width="31" height="31" viewBox="0 0 31 31" fill="none" xmlns="http://www.w3.org/2000/svg">
<rect y="0.575806" width="30.0176" height="30.0176" rx="15.0088" fill="#6747ED"/>
<path fill-rule="evenodd" clip-rule="evenodd" d="M13.8963 16.1962C11.6671 16.1962 9.87747 14.4066 9.87747 12.1773C9.87747 9.94813 11.6671 8.15848 13.8963 8.15848C16.1256 8.15848 17.9152 9.94813 17.9152 12.1773C17.9152 14.4066 16.1256 16.1962 13.8963 16.1962ZM13.8963 6.14905C17.2245 6.14905 19.9246 8.84922 19.9246 12.1773C19.9246 15.5055 17.2245 18.2056 13.8963 18.2056C10.5682 18.2056 7.86804 15.5055 7.86804 12.1773C7.86804 8.84922 10.5682 6.14905 13.8963 6.14905ZM19.6421 18.5196C20.0502 18.9278 20.0502 19.5557 19.6421 19.9325L15.6232 23.9514C15.215 24.3595 14.5871 24.3595 14.2103 23.9514C13.8021 23.5432 13.8021 22.9152 14.2103 22.5385L18.2292 18.5196C18.6059 18.1114 19.2653 18.1114 19.6421 18.5196ZM21.9655 7.15377C21.9655 7.71892 21.5259 8.15848 20.9607 8.15848C20.3956 8.15848 19.956 7.71892 19.956 7.15377C19.956 6.58861 20.3956 6.14905 20.9607 6.14905C21.4945 6.14905 21.9655 6.58861 21.9655 7.15377Z" fill="white"/>
</svg>
