<svg width="31" height="31" viewBox="0 0 31 31" fill="none" xmlns="http://www.w3.org/2000/svg">
<rect x="0.982178" y="0.520752" width="30.0176" height="30.0176" rx="15.0088" fill="#FF060A"/>
<path d="M25.2829 11.5616C24.3301 10.6819 23.0121 9.3385 21.9387 8.38573L21.8752 8.34127C21.7695 8.2564 21.6503 8.18985 21.5226 8.14436C18.9343 7.66163 6.88812 5.40992 6.65311 5.4385C6.58726 5.44772 6.52431 5.4716 6.46891 5.50837L6.40856 5.55601C6.33426 5.63147 6.27783 5.72263 6.24342 5.82279L6.22754 5.86407V6.08956V6.1245C7.58365 9.90063 12.9382 22.2707 13.9926 25.1735C14.0561 25.3704 14.1768 25.7452 14.4023 25.7642H14.4531C14.5738 25.7642 15.0883 25.0846 15.0883 25.0846C15.0883 25.0846 24.2857 13.9308 25.2162 12.7431C25.3367 12.5967 25.443 12.4394 25.5338 12.273C25.557 12.1429 25.546 12.0089 25.5021 11.8843C25.4581 11.7596 25.3826 11.6484 25.2829 11.5616ZM17.448 12.8606L21.3734 9.60527L23.6759 11.7268L17.448 12.8606ZM15.9235 12.6478L9.16524 7.10902L20.0998 9.12571L15.9235 12.6478ZM16.5333 14.0992L23.4504 12.9844L15.5424 22.5121L16.5333 14.0992ZM8.24741 7.66163L15.3582 13.6958L14.3292 22.5185L8.24741 7.66163Z" fill="white"/>
</svg>
