<svg width="31" height="31" viewBox="0 0 31 31" fill="none" xmlns="http://www.w3.org/2000/svg">
<rect x="0.644043" y="0.575806" width="30.0176" height="30.0176" rx="15.0088" fill="#2D59F6"/>
<g clip-path="url(#clip0_76_755)">
<path d="M13.0453 18.025V12.9764C13.0426 11.8233 13.4255 10.7024 14.1331 9.79202C14.8408 8.88162 15.8326 8.23401 16.9507 7.95222C17.3695 7.84679 17.7997 7.7936 18.2316 7.79387C19.8772 7.79128 21.5243 7.79609 23.1692 7.78906C23.3542 7.78906 23.4089 7.83494 23.4078 8.0251C23.4004 9.60932 23.4004 11.1935 23.4078 12.7777C23.4078 12.9502 23.3575 12.9945 23.1892 12.9938C21.6175 12.9879 20.0444 12.9901 18.4735 12.9901C18.2338 12.9901 18.2327 12.9901 18.2327 13.2339C18.2327 16.5812 18.2327 19.9284 18.2327 23.2757C18.2327 23.5476 18.2649 23.5202 17.9833 23.5202C16.4113 23.5202 14.8386 23.5176 13.2677 23.5247C13.086 23.5247 13.042 23.4706 13.0427 23.2953C13.0479 21.5386 13.0453 19.7817 13.0453 18.025Z" fill="white"/>
<path d="M7.86002 10.4095C7.86002 9.6089 7.86446 8.80792 7.85632 8.0073C7.85632 7.84044 7.89776 7.78754 8.07091 7.78828C9.66005 7.79469 11.2491 7.79469 12.838 7.78828C13.0122 7.78828 13.0633 7.82527 13.0529 8.01581C12.9345 10.2293 11.5475 12.0577 9.44646 12.7455C8.98801 12.89 8.51208 12.9717 8.03169 12.9882C7.8837 12.9949 7.85669 12.9434 7.85743 12.8106C7.86261 12.0108 7.86002 11.2101 7.86002 10.4095Z" fill="white"/>
</g>
<defs>
<clipPath id="clip0_76_755">
<rect width="15.5525" height="15.7363" fill="white" transform="translate(7.85657 7.78827)"/>
</clipPath>
</defs>
</svg>
