<svg width="31" height="31" viewBox="0 0 31 31" fill="none" xmlns="http://www.w3.org/2000/svg">
<rect y="0.534485" width="30.0176" height="30.0176" rx="15.0088" fill="#FF007A"/>
<g clip-path="url(#clip0_76_955)">
<path d="M10.7591 6.77405C10.4797 6.73095 10.4678 6.7265 10.6001 6.70718C10.8528 6.66853 11.4472 6.72055 11.8574 6.81715C12.8145 7.04306 13.6855 7.62268 14.6158 8.65262L14.8625 8.92609L15.2163 8.86961C16.7054 8.63182 18.2184 8.82056 19.4861 9.40167C19.8354 9.56218 20.3853 9.88023 20.4522 9.96197C20.476 9.98872 20.5161 10.1552 20.5413 10.335C20.6365 10.9562 20.5904 11.4303 20.3987 11.7856C20.2946 11.9788 20.2887 12.0397 20.3585 12.2061C20.3919 12.2747 20.4439 12.3325 20.5086 12.373C20.5732 12.4134 20.6479 12.4349 20.7242 12.435C21.0392 12.435 21.3781 11.9297 21.5341 11.2253L21.5966 10.9444L21.7199 11.0841C22.3991 11.848 22.9312 12.8883 23.0218 13.6284L23.0456 13.8217L22.9327 13.6463C22.7685 13.3777 22.5479 13.148 22.2862 12.973C21.8314 12.6743 21.3498 12.5718 20.0777 12.5049C18.9273 12.4454 18.2764 12.3473 17.6314 12.1378C16.533 11.7811 15.9802 11.3085 14.6753 9.60825C14.0957 8.85177 13.739 8.43415 13.3823 8.09827C12.5723 7.33287 11.7772 6.93159 10.7591 6.77554V6.77405Z" fill="white"/>
<path d="M20.719 8.46035C20.7473 7.95504 20.8156 7.62064 20.9553 7.31597C20.9859 7.23897 21.0243 7.16527 21.0698 7.09601C21.0772 7.09601 21.0534 7.18518 21.0163 7.29367C20.9152 7.59092 20.8974 7.99516 20.9687 8.46629C21.0579 9.06375 21.1069 9.14995 21.7415 9.79496C22.0403 10.0982 22.3865 10.4786 22.5129 10.6436L22.7418 10.9408L22.5129 10.7283C22.2335 10.4682 21.5914 9.95993 21.4488 9.88711C21.3536 9.83955 21.3388 9.83955 21.2808 9.89751C21.2258 9.95102 21.2154 10.0313 21.2065 10.4117C21.1961 11.0047 21.1144 11.3852 20.9182 11.7642C20.8127 11.9723 20.7963 11.9277 20.8914 11.6943C20.9628 11.5219 20.9702 11.4447 20.9702 10.871C20.9702 9.71917 20.8305 9.44125 20.0235 8.96863C19.7801 8.82804 19.5301 8.69909 19.2744 8.58222C19.1485 8.53158 19.0263 8.47198 18.9088 8.40387C18.9311 8.38158 19.7188 8.61046 20.0354 8.73084C20.508 8.91216 20.5853 8.93445 20.6432 8.91364C20.6804 8.89878 20.6997 8.78731 20.7175 8.46035H20.719ZM11.3069 10.4325C10.7406 9.65675 10.3884 8.46629 10.4657 7.57605L10.488 7.30111L10.6173 7.3234C10.861 7.36798 11.2786 7.52255 11.4748 7.64145C12.0113 7.96544 12.2447 8.39198 12.481 9.4888C12.5508 9.80983 12.6415 10.1725 12.6831 10.2973C12.75 10.495 13.0056 10.9572 13.2122 11.2574C13.3608 11.4744 13.2627 11.5769 12.9328 11.5472C12.429 11.5026 11.7468 11.0345 11.3069 10.4325ZM20.0294 16.2094C17.378 15.1498 16.4447 14.2283 16.4447 12.6752C16.4447 12.4464 16.4521 12.2591 16.4625 12.2591C16.4714 12.2591 16.574 12.3334 16.6899 12.427C17.2279 12.8551 17.8298 13.0379 19.4974 13.2801C20.4783 13.4228 21.0282 13.5372 21.5379 13.7052C23.1579 14.2387 24.1581 15.3207 24.3974 16.7965C24.4658 17.2245 24.4271 18.0271 24.3127 18.4506C24.2235 18.785 23.953 19.387 23.8817 19.4107C23.8609 19.4182 23.8415 19.3424 23.8371 19.2383C23.8103 18.6855 23.528 18.146 23.0553 17.7417C22.5173 17.2825 21.795 16.9169 20.0294 16.2109V16.2094ZM18.1687 16.6508C18.1375 16.4626 18.0949 16.2765 18.0409 16.0935L17.9725 15.8929L18.0988 16.0341C18.2727 16.2273 18.4109 16.4755 18.5269 16.8069C18.616 17.0596 18.625 17.1339 18.625 17.5441C18.625 17.9468 18.6131 18.0315 18.5298 18.2574C18.4156 18.5924 18.2242 18.8959 17.971 19.1432C17.4865 19.6337 16.8638 19.9042 15.9646 20.0171C15.8086 20.0364 15.3538 20.0691 14.954 20.0899C13.9449 20.1419 13.2805 20.2504 12.6846 20.4585C12.6305 20.4822 12.5726 20.4959 12.5137 20.4986C12.4899 20.4749 12.8971 20.2341 13.2315 20.0736C13.7041 19.8462 14.1752 19.7228 15.2305 19.549C15.7506 19.4628 16.2901 19.3572 16.4269 19.3156C17.7169 18.9233 18.3812 17.9082 18.1687 16.6508Z" fill="white"/>
<path d="M19.3835 18.7971C19.0312 18.0451 18.9495 17.3183 19.1427 16.6406C19.1635 16.5663 19.1962 16.5084 19.217 16.5084C19.2363 16.5084 19.3211 16.5529 19.4013 16.6079C19.5648 16.7164 19.8888 16.8992 20.7567 17.3689C21.8387 17.9559 22.457 18.4092 22.8761 18.9294C23.2432 19.3827 23.4706 19.9014 23.5805 20.5315C23.643 20.8882 23.6058 21.7502 23.5137 22.1099C23.2224 23.2453 22.5476 24.1371 21.5816 24.6572C21.4404 24.733 21.3141 24.7955 21.2992 24.7955C21.2858 24.7955 21.3378 24.6662 21.4136 24.5071C21.7391 23.8324 21.7763 23.177 21.5311 22.4473C21.3795 21.9999 21.0733 21.4545 20.455 20.5315C19.7357 19.4615 19.5603 19.1746 19.3835 18.7971ZM9.42291 22.8589C10.4083 22.0326 11.6314 21.447 12.7476 21.2657C13.3224 21.192 13.9056 21.2146 14.473 21.3326C15.1864 21.5139 15.8255 21.9211 16.1569 22.4042C16.4809 22.8783 16.6206 23.2899 16.7663 24.2084C16.8227 24.5696 16.8852 24.9337 16.903 25.0154C17.0115 25.491 17.224 25.8715 17.4856 26.0617C17.9017 26.3649 18.6211 26.3842 19.327 26.1108C19.4003 26.077 19.4778 26.053 19.5574 26.0394C19.5826 26.0647 19.2274 26.301 18.9777 26.4258C18.6815 26.5834 18.3501 26.6631 18.0147 26.6577C17.3682 26.6577 16.8317 26.3307 16.3828 25.6649C16.2182 25.383 16.0713 25.0911 15.9429 24.791C15.4703 23.7194 15.237 23.394 14.6885 23.0358C14.21 22.7237 13.5932 22.6687 13.1295 22.8946C12.5202 23.1918 12.3507 23.9647 12.7877 24.4551C12.9918 24.6659 13.2588 24.8046 13.5486 24.8505C13.6637 24.8662 13.7809 24.8571 13.8921 24.8236C14.0033 24.7901 14.1061 24.7331 14.1933 24.6564C14.2806 24.5797 14.3503 24.4851 14.3978 24.3791C14.4453 24.2731 14.4695 24.1581 14.4686 24.042C14.4686 23.7194 14.3437 23.5366 14.0302 23.394C13.6006 23.2022 13.1414 23.4267 13.1429 23.8265C13.1429 23.9974 13.2187 24.1044 13.3911 24.1831C13.5011 24.2322 13.504 24.2352 13.4134 24.2173C13.021 24.1356 12.9289 23.6645 13.244 23.3524C13.6244 22.9778 14.4091 23.1428 14.6781 23.6555C14.7911 23.871 14.8045 24.2991 14.7064 24.5577C14.4834 25.1373 13.8414 25.442 13.1875 25.2755C12.7416 25.1626 12.5618 25.0407 12.0253 24.4923C11.0934 23.5381 10.7323 23.3524 9.38873 23.1443L9.13013 23.1042L9.42291 22.8589Z" fill="white"/>
<path fill-rule="evenodd" clip-rule="evenodd" d="M5.0484 5.78262C8.16052 9.53678 10.3051 11.0854 10.5429 11.4124C10.7391 11.6829 10.6648 11.9266 10.3289 12.1168C10.09 12.2368 9.83004 12.309 9.56351 12.3294C9.34503 12.3294 9.26924 12.2461 9.26924 12.2461C9.14291 12.1272 9.07157 12.1481 8.4221 11.0022C7.86992 10.1428 7.31109 9.28771 6.74565 8.43699C6.69809 8.3924 6.69958 8.3924 8.33144 11.295C8.5945 11.8999 8.38346 12.1213 8.38346 12.2075C8.38346 12.3829 8.33441 12.475 8.11742 12.7173C7.75479 13.1185 7.59279 13.5704 7.47538 14.5052C7.3446 15.553 6.97602 16.2931 5.9535 17.5608C5.35605 18.3024 5.25796 18.4377 5.10636 18.7379C4.91613 19.1139 4.86411 19.325 4.84331 19.7991C4.82101 20.3029 4.86411 20.6269 5.01868 21.1069C5.15244 21.529 5.29511 21.8054 5.65626 22.3613C5.96837 22.8413 6.14671 23.198 6.14671 23.3377C6.14671 23.4477 6.16752 23.4477 6.65202 23.3392C7.80532 23.0806 8.74312 22.6258 9.27072 22.0655C9.59769 21.7192 9.67348 21.529 9.67646 21.0549C9.67794 20.7458 9.66754 20.6804 9.58283 20.502C9.44609 20.2122 9.19641 19.97 8.64651 19.5954C7.92422 19.105 7.61509 18.7111 7.53186 18.1687C7.46052 17.7228 7.54226 17.4092 7.94056 16.5784C8.35373 15.7164 8.45628 15.3493 8.52613 14.4829C8.57072 13.9226 8.63165 13.7011 8.79365 13.5228C8.96308 13.3385 9.11467 13.2761 9.53378 13.2196C10.216 13.126 10.6484 12.9521 11.0051 12.6251C11.1481 12.5071 11.2635 12.3592 11.3431 12.1918C11.4227 12.0243 11.4646 11.8415 11.4659 11.6561L11.4807 11.344L11.3068 11.1449C10.6811 10.4196 4.62929 5.21191 4.59065 5.21191C4.58322 5.21191 4.78832 5.46903 5.0484 5.78262ZM6.49894 20.3698C6.56713 20.2493 6.5874 20.1076 6.55572 19.9729C6.52404 19.8382 6.44274 19.7204 6.32803 19.643C6.1051 19.4944 5.75584 19.5657 5.75584 19.7574C5.75584 19.8169 5.78853 19.86 5.86284 19.8971C5.98769 19.961 5.9966 20.0324 5.89851 20.1795C5.79894 20.3267 5.80786 20.456 5.92081 20.5451C6.10361 20.6863 6.36221 20.609 6.49894 20.3698ZM11.9102 13.3846C11.5907 13.4812 11.2801 13.8185 11.182 14.1723C11.124 14.3878 11.1582 14.7668 11.2459 14.8827C11.3886 15.0714 11.5253 15.1205 11.8983 15.119C12.6266 15.1145 13.2597 14.8039 13.334 14.4145C13.3935 14.0965 13.1155 13.6566 12.7321 13.4619C12.4716 13.3561 12.1858 13.3292 11.9102 13.3846ZM12.7633 14.0459C12.8748 13.8869 12.8257 13.716 12.634 13.6001C12.2714 13.3786 11.72 13.5614 11.72 13.9033C11.72 14.0742 12.0068 14.26 12.2699 14.26C12.4453 14.26 12.686 14.1559 12.7633 14.0459Z" fill="white"/>
</g>
<defs>
<clipPath id="clip0_76_955">
<rect width="20.8069" height="22.2931" fill="white" transform="translate(4.58984 4.46851)"/>
</clipPath>
</defs>
</svg>
