<svg width="31" height="31" viewBox="0 0 31 31" fill="none" xmlns="http://www.w3.org/2000/svg">
<rect x="0.787598" y="0.506958" width="30.0176" height="30.0176" rx="15.0088" fill="#2775CA"/>
<path d="M19.4522 17.1858C19.4522 15.2615 18.2996 14.6016 15.9945 14.3272C14.3479 14.107 14.0186 13.6672 14.0186 12.8975C14.0186 12.1278 14.5675 11.6325 15.6652 11.6325C16.6531 11.6325 17.2046 11.9624 17.4763 12.7871C17.5045 12.8668 17.5564 12.9359 17.6251 12.9851C17.6938 13.0343 17.776 13.0612 17.8605 13.0621H18.7501C18.801 13.0634 18.8516 13.0544 18.8989 13.0355C18.9463 13.0166 18.9892 12.9883 19.0253 12.9523C19.0613 12.9163 19.0897 12.8734 19.1087 12.8261C19.1276 12.7788 19.1368 12.7282 19.1356 12.6773V12.6224C19.0284 12.0266 18.7275 11.4829 18.2798 11.0756C17.832 10.6682 17.2623 10.42 16.6591 10.3695V9.05693C16.6591 8.83672 16.4944 8.67207 16.22 8.61719H15.3934C15.1732 8.61719 15.0086 8.78184 14.9537 9.05693V10.3199C13.3071 10.5395 12.2643 11.6378 12.2643 13.0106C12.2643 14.8225 13.362 15.5366 15.6678 15.811C17.2073 16.0855 17.6986 16.4134 17.6986 17.2936C17.6986 18.1737 16.9295 18.7768 15.8874 18.7768C14.4597 18.7768 13.9658 18.1744 13.8011 17.3485C13.7846 17.258 13.7375 17.1759 13.6677 17.1159C13.5978 17.056 13.5096 17.0218 13.4176 17.0192H12.4765C12.4256 17.018 12.3751 17.0271 12.3278 17.046C12.2806 17.065 12.2377 17.0933 12.2017 17.1292C12.1657 17.1652 12.1374 17.2081 12.1185 17.2554C12.0996 17.3026 12.0905 17.3532 12.0917 17.404V17.4589C12.3119 18.833 13.192 19.8223 15.0065 20.0967V21.42C15.0065 21.6402 15.1712 21.8048 15.4456 21.8597H16.2689C16.4884 21.8597 16.6531 21.695 16.708 21.42V20.1C18.3545 19.8256 19.4522 18.6704 19.4522 17.1858Z" fill="white"/>
<path d="M13.0286 22.9539C8.74499 21.4144 6.5436 16.6341 8.13792 12.402C8.96185 10.0935 10.7757 8.33523 13.0286 7.51063C13.2489 7.40086 13.3586 7.23621 13.3586 6.96112V6.19207C13.3586 5.97186 13.2489 5.8072 13.0286 5.75232C12.9738 5.75232 12.864 5.75232 12.8091 5.80721C7.58841 7.45575 4.73041 13.0064 6.37894 18.2278C6.85797 19.7359 7.69199 21.1071 8.81091 22.226C9.92983 23.3449 11.301 24.1789 12.8091 24.658C12.8548 24.6843 12.9062 24.6995 12.9589 24.7023C13.0116 24.7051 13.0643 24.6953 13.1125 24.6738C13.1608 24.6524 13.2032 24.6198 13.2365 24.5787C13.2697 24.5377 13.2927 24.4894 13.3037 24.4377C13.3586 24.3829 13.3586 24.328 13.3586 24.2182V23.4485C13.3586 23.2838 13.1953 23.0636 13.0286 22.9539ZM18.8517 5.80721C18.806 5.78081 18.7548 5.76559 18.7021 5.76279C18.6494 5.75999 18.5968 5.76969 18.5486 5.7911C18.5003 5.8125 18.4578 5.845 18.4246 5.88595C18.3913 5.92691 18.3682 5.97515 18.3571 6.02674C18.3022 6.08162 18.3022 6.13651 18.3022 6.24695V7.016C18.3022 7.2362 18.4669 7.45574 18.6322 7.56551C22.9159 9.10494 25.1172 13.8859 23.5229 18.1174C23.1177 19.2422 22.4693 20.2638 21.6239 21.1093C20.7785 21.9548 19.757 22.6034 18.6322 23.0088C18.412 23.1185 18.3022 23.2838 18.3022 23.5583V24.3273C18.3022 24.5468 18.412 24.7122 18.6322 24.767C18.6871 24.767 18.7969 24.7671 18.8517 24.7122C24.0724 23.063 26.9304 17.5123 25.2819 12.2916C24.8044 10.7765 23.9717 9.39742 22.8532 8.26936C21.7347 7.14131 20.3627 6.29691 18.8517 5.80654V5.80721Z" fill="white"/>
</svg>
