<svg width="31" height="31" viewBox="0 0 31 31" fill="none" xmlns="http://www.w3.org/2000/svg">
<rect x="0.787598" y="0.548279" width="30.0176" height="30.0176" rx="15.0088" fill="#58BAF9"/>
<g clip-path="url(#clip0_76_883)">
<path d="M14.6272 23.3929L7.05544 7.97059C6.9324 7.72451 7.1174 7.43329 7.39003 7.43329H10.0137C10.1544 7.43329 10.2863 7.51295 10.3483 7.63599L15.8779 18.8245C16.3709 19.8283 17.797 19.8283 18.29 18.8245L23.8019 7.64484C23.8639 7.52181 23.9958 7.44214 24.1365 7.44214H24.4623C24.6561 7.44214 24.7792 7.64484 24.6915 7.81214L17.0401 23.3929C16.5471 24.3958 15.1202 24.3958 14.6272 23.3929Z" fill="white"/>
<path opacity="0.1" d="M14.6283 23.3926L10.3494 7.64454C10.2874 7.51265 10.1467 7.44183 10.0325 7.44183H7.40002C7.10969 7.44183 6.94239 7.73217 7.05658 7.97913L14.6283 23.3926Z" fill="white"/>
<path opacity="0.1" d="M15.8771 18.8323L7.0546 7.9704C6.94926 7.71547 7.10771 7.45966 7.35378 7.43311H10.0217C10.1713 7.44196 10.2855 7.53844 10.3386 7.63581L15.8771 18.8323Z" fill="white"/>
</g>
<defs>
<clipPath id="clip0_76_883">
<rect width="17.7037" height="16.7117" fill="white" transform="translate(7.0166 7.43304)"/>
</clipPath>
</defs>
</svg>
