<svg width="31" height="31" viewBox="0 0 31 31" fill="none" xmlns="http://www.w3.org/2000/svg">
<rect x="0.312622" y="0.506958" width="30.0176" height="30.0176" rx="15.0088" fill="#23292F"/>
<path d="M21.6036 8.04736H24.2097L18.7863 13.4173C16.8222 15.3609 13.6379 15.3609 11.6724 13.4173L6.24683 8.04736H8.85501L12.9754 12.1266C13.5758 12.7183 14.3848 13.0499 15.2277 13.0499C16.0707 13.0499 16.8797 12.7183 17.4801 12.1266L21.6036 8.04736Z" fill="white"/>
<path d="M8.8217 22.9789H6.21387L11.6725 17.5759C13.6366 15.6323 16.8209 15.6323 18.7864 17.5759L24.2451 22.9789H21.639L17.4834 18.8666C16.883 18.2749 16.074 17.9432 15.2311 17.9432C14.3881 17.9432 13.5791 18.2749 12.9787 18.8666L8.8217 22.9789Z" fill="white"/>
</svg>
