<svg width="31" height="31" viewBox="0 0 31 31" fill="none" xmlns="http://www.w3.org/2000/svg">
<rect x="0.262573" y="0.575806" width="30.0176" height="30.0176" rx="15.0088" fill="#EBB144"/>
<path d="M16.2328 11.8842C16.1227 11.8027 15.9964 11.8426 15.879 11.8426C14.1828 11.8426 12.4858 11.832 10.7887 11.8483C10.4692 11.8483 10.3983 11.753 10.4056 11.4514C10.4252 10.5971 10.4227 9.73966 10.4056 8.88626C10.4007 8.62461 10.4871 8.56021 10.7317 8.56755C11.6861 8.58059 12.6423 8.56755 13.5967 8.57815C13.8413 8.58222 13.9326 8.52191 13.9228 8.25945C13.9048 7.54787 13.9228 6.83465 13.9122 6.12226C13.9122 5.90626 13.9521 5.81741 14.1942 5.82148C15.0272 5.8367 15.8603 5.8367 16.6933 5.82148C16.9329 5.81659 16.9802 5.903 16.9761 6.11981C16.9639 6.78167 16.9712 7.44353 16.9761 8.10539C16.9761 8.50642 16.9761 8.50642 17.3625 8.50642H20.5022C20.6473 8.50642 20.781 8.48604 20.7851 8.71101C20.8014 9.5962 20.8731 10.4806 20.7704 11.3658C20.7408 11.7329 20.5984 12.0819 20.3629 12.3651C18.5525 14.4713 16.88 16.6916 15.0753 18.8044C14.9311 18.9731 14.7835 19.1386 14.6344 19.3089C14.7444 19.4124 14.861 19.3684 14.9653 19.3692C16.7642 19.3692 18.5631 19.3766 20.3612 19.3692C20.6335 19.3692 20.728 19.4344 20.7215 19.7222C20.702 20.5677 20.702 21.4127 20.7215 22.2571C20.728 22.5522 20.6685 22.659 20.3433 22.6508C19.3073 22.6272 18.2705 22.6508 17.2345 22.6361C16.9818 22.6361 16.9362 22.7095 16.9549 22.9491C17.0144 23.6827 17.0365 24.4122 17.0894 25.1434C17.1025 25.33 17.056 25.3928 16.8628 25.3879C15.9592 25.3798 15.055 25.3798 14.1502 25.3879C13.9505 25.3879 13.9163 25.3064 13.9171 25.1344C13.9236 24.4212 13.9089 23.7088 13.926 22.9964C13.9317 22.7348 13.8445 22.6704 13.6 22.6753C12.5404 22.6875 11.4865 22.6753 10.4293 22.685C10.2027 22.685 10.1358 22.619 10.1318 22.3916C10.1171 21.5578 10.0568 20.7256 10.144 19.8901C10.1823 19.473 10.3489 19.0781 10.6208 18.7595C12.4613 16.5588 14.1991 14.2765 16.082 12.1116C16.1415 12.0431 16.2205 11.9877 16.2328 11.8842Z" fill="white"/>
</svg>
