   <svg
            width="26"
            height="31"
            viewBox="0 0 26 31"
            fill="none"
            xmlns="http://www.w3.org/2000/svg"
          >
            <path
              d="M22.4239 11.2177C22.4239 13.7813 22.446 16.3281 22.4177 18.8743C22.3892 21.4342 21.5439 23.6857 19.6837 25.4878C18.2527 26.8741 16.5245 27.575 14.5179 27.4682C12.6064 27.3665 11.0304 26.5296 9.73338 25.1456C8.936 24.2947 8.34616 23.3131 7.94108 22.2201C7.93122 22.1935 7.91747 22.1683 7.89659 22.1231C7.64263 22.4036 7.39483 22.6764 7.148 22.9501C5.96356 24.2633 4.77891 25.5764 3.5959 26.891C3.48236 27.0172 3.34376 27.0518 3.19307 27.0029C3.03591 26.9519 2.96487 26.8229 2.95697 26.66C2.95503 26.6201 2.95622 26.5801 2.95622 26.5401C2.95617 21.7439 2.94404 16.9477 2.96137 12.1516C2.96964 9.86477 3.68398 7.81056 5.18823 6.06767C6.37631 4.69112 7.87113 3.82509 9.68744 3.59636C11.3868 3.38234 12.9505 3.79932 14.3588 4.76946C15.7018 5.69452 16.649 6.94369 17.2914 8.43298C17.3565 8.58373 17.4167 8.73655 17.4859 8.90483C17.8339 8.51899 18.1726 8.14279 18.512 7.7672C19.5947 6.56915 20.679 5.37259 21.7585 4.17172C21.8842 4.03189 22.0243 3.96682 22.1974 4.0326C22.374 4.09978 22.4252 4.2528 22.4251 4.4346C22.4233 6.68992 22.4239 8.94523 22.4239 11.2177ZM15.7217 8.87459C15.2675 7.73897 14.6079 6.76198 13.5852 6.05389C12.5089 5.30865 11.3255 4.9402 10.0184 5.06689C8.69694 5.19498 7.58089 5.78065 6.63846 6.70679C6.56381 6.78016 6.49427 6.85872 6.42236 6.93487C6.43145 6.94928 6.44054 6.96368 6.44963 6.97808C6.51754 6.96287 6.5887 6.95605 6.65284 6.93114C7.21735 6.71182 7.80135 6.59862 8.4072 6.59269C9.67412 6.58029 10.8067 6.94271 11.7349 7.82678C12.8235 8.8636 13.3234 10.1912 13.4915 11.6464C13.5643 12.2774 13.5161 12.9233 13.5113 13.5624C13.4987 15.2464 13.4774 16.9304 13.4655 18.6144C13.463 18.9673 13.4504 19.3259 13.5052 19.672C13.5986 20.262 14.0985 20.746 14.6421 20.8375C15.2177 20.9345 15.8135 20.6379 16.1247 20.0985C16.3333 19.7368 16.3857 19.3401 16.404 18.9303C16.5207 16.3218 16.5516 13.7154 16.2762 11.1132C16.1953 10.3492 16.0308 9.60796 15.7217 8.87459ZM11.9976 16.2026C12.0077 14.8159 12.0187 13.4292 12.0273 12.0425C12.0301 11.6042 11.9231 11.1989 11.6721 10.8315C11.0393 9.90538 9.85912 9.96154 9.33483 10.9496C9.14955 11.2988 9.07176 11.6784 9.0713 12.0714C9.06839 14.5599 9.06776 17.0485 9.06761 19.5371C9.06752 21.1236 9.50337 22.5583 10.536 23.7908C11.4482 24.8795 12.5572 25.6561 13.9758 25.8957C15.9955 26.2368 17.6345 25.4961 19.0014 24.0391C18.9457 24.035 18.8921 24.0402 18.844 24.0591C18.1117 24.347 17.3541 24.4782 16.5674 24.4279C15.3122 24.3476 14.2252 23.8897 13.3872 22.9372C12.3247 21.7297 11.8663 20.2972 11.9067 18.6999C11.9274 17.8786 11.9662 17.0577 11.9976 16.2026ZM15.829 22.7838C16.7881 23.0606 17.7262 22.9973 18.5945 22.5056C20.1093 21.6477 20.8763 20.2813 20.8994 18.5817C20.9496 14.9068 20.915 11.2307 20.9151 7.55505C20.9151 7.50043 20.9151 7.4458 20.9151 7.35935C20.8605 7.41112 20.8307 7.43563 20.8052 7.46393C19.8502 8.52264 18.8974 9.5833 17.9383 10.6383C17.8419 10.7443 17.8064 10.8468 17.8066 10.9868C17.8102 13.578 17.8105 16.1692 17.8081 18.7604C17.8076 19.2982 17.762 19.8319 17.573 20.3418C17.1685 21.4328 16.4143 22.1194 15.2543 22.3306C15.175 22.345 15.0941 22.3501 15.0139 22.3595C15.0092 22.3798 15.0044 22.4 14.9997 22.4202C15.2675 22.5383 15.5352 22.6564 15.829 22.7838ZM7.701 11.0269C7.72526 10.9451 7.74656 10.8624 7.77422 10.7818C8.16287 9.64985 8.91327 8.92357 10.1119 8.70238C10.1968 8.6867 10.2838 8.68159 10.4053 8.66742C10.3271 8.61486 10.2827 8.58095 10.2348 8.55345C9.27184 8.00176 8.26211 7.93876 7.23427 8.3183C5.53311 8.94647 4.48596 10.6999 4.46985 12.4314C4.43557 16.1189 4.45935 19.8069 4.45934 23.4947C4.45934 23.5435 4.45934 23.5922 4.45934 23.641C4.47213 23.6484 4.48493 23.6559 4.49772 23.6633C4.51981 23.633 4.53937 23.6004 4.56437 23.5727C5.53868 22.4926 6.51471 21.4139 7.48493 20.3301C7.53769 20.2711 7.56594 20.1692 7.56607 20.0872C7.57028 17.467 7.56441 14.8467 7.57531 12.2265C7.57693 11.8357 7.65396 11.4453 7.701 11.0269Z"
              fill="white"
              fill-opacity="0.96"
            />
            <path
              d="M11.9972 16.2197C11.9661 17.0578 11.9274 17.8786 11.9066 18.7C11.8662 20.2972 12.3247 21.7297 13.3871 22.9372C14.2252 23.8898 15.3122 24.3476 16.5674 24.4279C17.3541 24.4783 18.1116 24.3471 18.8439 24.0592C18.8921 24.0402 18.9457 24.035 19.0013 24.0391C17.6345 25.4961 15.9954 26.2368 13.9758 25.8957C12.5571 25.6562 11.4482 24.8796 10.536 23.7908C9.50334 22.5583 9.06749 21.1236 9.06759 19.5371C9.06773 17.0485 9.06837 14.5599 9.07128 12.0714C9.07174 11.6784 9.14953 11.2989 9.33481 10.9497C9.85909 9.96156 11.0392 9.9054 11.6721 10.8315C11.9231 11.1989 12.0301 11.6042 12.0273 12.0425C12.0186 13.4292 12.0077 14.8159 11.9972 16.2197Z"
              fill="url(#paint0_linear_53_60)"
              fill-opacity="0.26"
            />
            <path
              d="M15.816 22.7792C15.5352 22.6564 15.2674 22.5383 14.9997 22.4202C15.0044 22.4 15.0092 22.3798 15.0139 22.3595C15.0941 22.3501 15.175 22.345 15.2543 22.3306C16.4143 22.1194 17.1684 21.4328 17.573 20.3418C17.762 19.8319 17.8076 19.2982 17.8081 18.7604C17.8104 16.1692 17.8102 13.578 17.8066 10.9869C17.8064 10.8468 17.8419 10.7443 17.9383 10.6383C18.8974 9.5833 19.8502 8.52265 20.8052 7.46393C20.8307 7.43563 20.8604 7.41112 20.9151 7.35935C20.9151 7.4458 20.9151 7.50043 20.9151 7.55505C20.915 11.2307 20.9496 14.9068 20.8994 18.5817C20.8763 20.2813 20.1093 21.6477 18.5945 22.5056C17.7262 22.9973 16.7881 23.0606 15.816 22.7792Z"
              fill="url(#paint1_linear_53_60)"
              fill-opacity="0.26"
            />
            <path
              d="M7.69864 11.0408C7.65405 11.4453 7.57703 11.8357 7.5754 12.2264C7.5645 14.8467 7.57038 17.467 7.56616 20.0872C7.56603 20.1692 7.53778 20.2711 7.48502 20.3301C6.5148 21.4139 5.53877 22.4925 4.56446 23.5727C4.53946 23.6004 4.51991 23.633 4.49781 23.6633C4.48502 23.6559 4.47222 23.6484 4.45943 23.641C4.45943 23.5922 4.45943 23.5434 4.45943 23.4947C4.45944 19.8069 4.43566 16.1189 4.46995 12.4314C4.48605 10.6999 5.5332 8.94646 7.23436 8.31829C8.2622 7.93875 9.27194 8.00175 10.2348 8.55344C10.2828 8.58094 10.3272 8.61485 10.4054 8.66741C10.2839 8.68158 10.1969 8.68669 10.112 8.70237C8.91337 8.92356 8.16297 9.64983 7.77432 10.7818C7.74665 10.8624 7.72535 10.9451 7.69864 11.0408Z"
              fill="url(#paint2_linear_53_60)"
              fill-opacity="0.26"
            />
            <path
              d="M15.7298 8.88064C16.034 9.60196 16.1984 10.3432 16.2793 11.1072C16.5547 13.7093 16.5238 16.3158 16.4071 18.9242C16.3888 19.3341 16.3364 19.7308 16.1278 20.0925C15.8166 20.6319 15.2208 20.9285 14.6452 20.8315C14.1016 20.74 13.6017 20.256 13.5083 19.666C13.4535 19.3199 13.4661 18.9613 13.4686 18.6084C13.4805 16.9244 13.5018 15.2404 13.5144 13.5564C13.5192 12.9173 13.5675 12.2714 13.4946 11.6403C13.3265 10.1852 12.8266 8.85759 11.738 7.82077C10.8098 6.9367 9.67723 6.57429 8.41032 6.58668C7.80447 6.59261 7.22047 6.70581 6.65596 6.92513C6.59182 6.95005 6.52065 6.95686 6.45275 6.97207C6.44366 6.95767 6.43457 6.94327 6.42548 6.92887C6.49739 6.85272 6.56693 6.77415 6.64158 6.70078C7.58401 5.77464 8.70006 5.18897 10.0216 5.06088C11.3286 4.93419 12.512 5.30264 13.5883 6.04788C14.611 6.75597 15.2707 7.73296 15.7298 8.88064Z"
              fill="url(#paint3_linear_53_60)"
              fill-opacity="0.26"
            />
            <defs>
              <linearGradient
                id="paint0_linear_53_60"
                x1="14.0345"
                y1="25.9779"
                x2="14.0345"
                y2="10.1713"
                gradientUnits="userSpaceOnUse"
              >
                <stop stop-color="white" />
                <stop
                  offset="0.9999"
                  stop-color="#BED4FF"
                  stop-opacity="0.255208"
                />
                <stop offset="1" stop-color="white" stop-opacity="0" />
              </linearGradient>
              <linearGradient
                id="paint1_linear_53_60"
                x1="17.9632"
                y1="22.9462"
                x2="17.9632"
                y2="7.35935"
                gradientUnits="userSpaceOnUse"
              >
                <stop stop-color="white" />
                <stop
                  offset="0.9999"
                  stop-color="#BED4FF"
                  stop-opacity="0.255208"
                />
                <stop offset="1" stop-color="white" stop-opacity="0" />
              </linearGradient>
              <linearGradient
                id="paint2_linear_53_60"
                x1="7.4284"
                y1="23.6633"
                x2="7.4284"
                y2="8.07768"
                gradientUnits="userSpaceOnUse"
              >
                <stop stop-color="white" />
                <stop
                  offset="0.9999"
                  stop-color="#BED4FF"
                  stop-opacity="0.255208"
                />
                <stop offset="1" stop-color="white" stop-opacity="0" />
              </linearGradient>
              <linearGradient
                id="paint3_linear_53_60"
                x1="11.459"
                y1="20.8497"
                x2="11.459"
                y2="5.03632"
                gradientUnits="userSpaceOnUse"
              >
                <stop stop-color="white" />
                <stop
                  offset="0.9999"
                  stop-color="#BED4FF"
                  stop-opacity="0.255208"
                />
                <stop offset="1" stop-color="white" stop-opacity="0" />
              </linearGradient>
            </defs>
          </svg>