<svg width="13" height="13" viewBox="0 0 13 13" fill="none" xmlns="http://www.w3.org/2000/svg">
<g clip-path="url(#clip0_193_119)">
<path fill-rule="evenodd" clip-rule="evenodd" d="M12.1875 6.5C12.1875 9.64112 9.64112 12.1875 6.5 12.1875C3.35888 12.1875 0.8125 9.64112 0.8125 6.5C0.8125 3.35888 3.35888 0.8125 6.5 0.8125C9.64112 0.8125 12.1875 3.35888 12.1875 6.5ZM10.9688 6.5C10.9688 8.96805 8.96805 10.9688 6.5 10.9688C4.03197 10.9688 2.03125 8.96805 2.03125 6.5C2.03125 4.03197 4.03197 2.03125 6.5 2.03125C8.96805 2.03125 10.9688 4.03197 10.9688 6.5Z" fill="#AAAAAA"/>
<path d="M7.10938 4.0625C7.10938 3.72595 6.83655 3.45312 6.5 3.45312C6.16345 3.45312 5.89062 3.72595 5.89062 4.0625V6.5C5.89062 6.83655 6.16345 7.10938 6.5 7.10938H8.9375C9.27404 7.10938 9.54688 6.83655 9.54688 6.5C9.54688 6.16345 9.27404 5.89062 8.9375 5.89062H7.10938V4.0625Z" fill="#AAAAAA"/>
</g>
<defs>
<clipPath id="clip0_193_119">
<rect width="13" height="13" fill="white"/>
</clipPath>
</defs>
</svg>
