<svg width="16" height="16" viewBox="0 0 16 16" fill="none" xmlns="http://www.w3.org/2000/svg">
<g clip-path="url(#clip0_188_314)">
<path d="M7.99526 15.9777C5.87689 15.9763 3.84557 15.1347 2.34699 13.6375C0.848416 12.1402 0.00496549 10.1097 0.00170898 7.99131C0.00496501 5.87284 0.848368 3.8422 2.34692 2.34479C3.84547 0.847391 5.87679 0.00553209 7.99526 0.00390625C10.1137 0.00553209 12.145 0.847391 13.6436 2.34479C15.1421 3.8422 15.9855 5.87284 15.9888 7.99131C15.9855 10.1097 15.1421 12.1402 13.6435 13.6375C12.1449 15.1347 10.1136 15.9763 7.99526 15.9777ZM7.99526 0.618795C6.03978 0.620148 4.16471 1.39714 2.78142 2.77928C1.39812 4.16142 0.619583 6.03586 0.616597 7.99131C0.618499 9.947 1.39673 11.8219 2.78029 13.2042C4.16386 14.5864 6.03956 15.3628 7.99526 15.3628C9.95095 15.3628 11.8267 14.5864 13.2102 13.2042C14.5938 11.8219 15.372 9.947 15.3739 7.99131C15.3709 6.03586 14.5924 4.16142 13.2091 2.77928C11.8258 1.39714 9.9507 0.620148 7.99526 0.618795Z" fill="white"/>
<path d="M9.00637 14.7139C7.2513 14.7126 5.56846 14.0151 4.32698 12.7746C3.08549 11.5341 2.38675 9.85176 2.38403 8.09672C2.38675 6.34167 3.08549 4.65936 4.32698 3.41883C5.56846 2.17829 7.2513 1.48085 9.00637 1.47949C10.7614 1.48085 12.4443 2.17829 13.6857 3.41883C14.9272 4.65936 15.626 6.34167 15.6287 8.09672C15.626 9.85176 14.9272 11.5341 13.6857 12.7746C12.4443 14.0151 10.7614 14.7126 9.00637 14.7139ZM9.00637 1.95706C7.37807 1.95842 5.81679 2.60557 4.66501 3.75657C3.51324 4.90756 2.86506 6.46842 2.86262 8.09672C2.86532 9.72484 3.51367 11.2854 4.66539 12.4362C5.81714 13.587 7.37825 14.234 9.00637 14.2353C10.6345 14.234 12.1956 13.587 13.3473 12.4362C14.4991 11.2854 15.1474 9.72484 15.1501 8.09672C15.1474 6.46859 14.4991 4.90801 13.3473 3.75722C12.1956 2.60645 10.6345 1.95944 9.00637 1.95809V1.95706Z" fill="white"/>
<path d="M10.016 13.4514C8.62439 13.4503 7.29 12.8972 6.30557 11.9136C5.32114 10.9299 4.76706 9.59594 4.76489 8.20432C4.76706 6.81267 5.32114 5.47871 6.30557 4.49504C7.29 3.51139 8.62439 2.95836 10.016 2.95728C11.4078 2.95808 12.7423 3.51101 13.7268 4.49473C14.7113 5.47846 15.2652 6.81257 15.2672 8.20432C15.265 9.59594 14.7109 10.9299 13.7265 11.9136C12.742 12.8972 11.4077 13.4503 10.016 13.4514ZM10.016 3.29853C8.7148 3.29934 7.46703 3.81632 6.54655 4.73604C5.62608 5.65577 5.10804 6.90309 5.10613 8.20432C5.10831 9.50535 5.62648 10.7524 6.54693 11.6719C7.46738 12.5914 8.71498 13.1082 10.016 13.109C11.3171 13.1082 12.5647 12.5914 13.4851 11.6719C14.4056 10.7524 14.9238 9.50535 14.9259 8.20432C14.924 6.90309 14.406 5.65577 13.4855 4.73604C12.565 3.81632 11.3172 3.29934 10.016 3.29853Z" fill="white"/>
<path d="M11.0279 12.1877C9.99965 12.1869 9.01371 11.7783 8.28634 11.0515C7.55897 10.3247 7.14958 9.3391 7.14795 8.31087C7.14931 7.28244 7.55859 6.29656 8.28599 5.56956C9.01338 4.84254 9.99947 4.43379 11.0279 4.43298C12.0563 4.43379 13.0424 4.84254 13.7698 5.56956C14.4972 6.29656 14.9065 7.28244 14.9078 8.31087C14.9062 9.3391 14.4968 10.3247 13.7695 11.0515C13.0421 11.7783 12.0561 12.1869 11.0279 12.1877ZM11.0279 4.63794C10.0538 4.63874 9.11987 5.02591 8.43092 5.71447C7.74196 6.40305 7.35429 7.33681 7.35293 8.31087C7.35454 9.28476 7.74234 10.2182 8.43127 10.9066C9.1202 11.5949 10.054 11.982 11.0279 11.9828C12.0018 11.982 12.9356 11.5949 13.6245 10.9066C14.3134 10.2182 14.7012 9.28476 14.7028 8.31087C14.7015 7.33681 14.3139 6.40305 13.6249 5.71447C12.9359 5.02591 12.0019 4.63874 11.0279 4.63794Z" fill="white"/>
</g>
<defs>
<clipPath id="clip0_188_314">
<rect width="16" height="16" fill="white"/>
</clipPath>
</defs>
</svg>
